<?xml version="1.0" encoding="UTF-8"?>
<!-- Do not edit this file with editors other than draw.io -->
<!DOCTYPE svg PUBLIC "-//W3C//DTD SVG 1.1//EN" "http://www.w3.org/Graphics/SVG/1.1/DTD/svg11.dtd">
<svg xmlns="http://www.w3.org/2000/svg" style="background: transparent; background-color: transparent; color-scheme: light dark;" xmlns:xlink="http://www.w3.org/1999/xlink" version="1.1" width="286" height="277" viewBox="0 0 286 277" content="&lt;mxfile host=&quot;app.diagrams.net&quot; agent=&quot;Mozilla/5.0 (Windows NT 10.0; Win64; x64) AppleWebKit/537.36 (KHTML, like Gecko) Chrome/145.0.0.0 Safari/537.36&quot; version=&quot;29.6.0&quot; scale=&quot;1&quot; border=&quot;0&quot;&gt;&#10;  &lt;diagram name=&quot;Page-1&quot; id=&quot;AYwddVPeyI0otd7Wy2Ze&quot;&gt;&#10;    &lt;mxGraphModel dx=&quot;786&quot; dy=&quot;451&quot; grid=&quot;1&quot; gridSize=&quot;10&quot; guides=&quot;1&quot; tooltips=&quot;1&quot; connect=&quot;1&quot; arrows=&quot;1&quot; fold=&quot;1&quot; page=&quot;1&quot; pageScale=&quot;1&quot; pageWidth=&quot;827&quot; pageHeight=&quot;1169&quot; math=&quot;0&quot; shadow=&quot;0&quot;&gt;&#10;      &lt;root&gt;&#10;        &lt;mxCell id=&quot;0&quot; /&gt;&#10;        &lt;mxCell id=&quot;1&quot; parent=&quot;0&quot; /&gt;&#10;        &lt;mxCell id=&quot;KelcQbCNuYDzjiUfYtOG-20&quot; parent=&quot;1&quot; style=&quot;shape=mxgraph.signs.science.nuclear_2;html=1;pointerEvents=1;fillColor=#000066;strokeColor=none;verticalLabelPosition=bottom;verticalAlign=top;align=center;textShadow=1;labelBorderColor=none;shadow=1;&quot; value=&quot;&quot; vertex=&quot;1&quot;&gt;&#10;          &lt;mxGeometry height=&quot;260&quot; width=&quot;270&quot; x=&quot;260&quot; y=&quot;390&quot; as=&quot;geometry&quot; /&gt;&#10;        &lt;/mxCell&gt;&#10;        &lt;mxCell id=&quot;KelcQbCNuYDzjiUfYtOG-21&quot; parent=&quot;1&quot; style=&quot;pointerEvents=1;shadow=1;dashed=0;html=1;strokeColor=#36393d;fillColor=#FFFFFF;aspect=fixed;labelPosition=center;verticalLabelPosition=bottom;verticalAlign=top;align=center;outlineConnect=0;shape=mxgraph.vvd.networking;textShadow=1;convertToSvg=1;&quot; value=&quot;&quot; vertex=&quot;1&quot;&gt;&#10;          &lt;mxGeometry height=&quot;78&quot; width=&quot;78&quot; x=&quot;356&quot; y=&quot;472&quot; as=&quot;geometry&quot; /&gt;&#10;        &lt;/mxCell&gt;&#10;        &lt;mxCell id=&quot;KelcQbCNuYDzjiUfYtOG-22&quot; parent=&quot;1&quot; style=&quot;text;html=1;whiteSpace=wrap;strokeColor=none;fillColor=none;align=center;verticalAlign=middle;rounded=0;fontSize=15;shadow=1;fontFamily=Verdana;textShadow=1;convertToSvg=1;glass=1;horizontal=1;&quot; value=&quot;&amp;lt;font&amp;gt;&amp;lt;b&amp;gt;ToESS&amp;lt;/b&amp;gt;&amp;lt;/font&amp;gt;&quot; vertex=&quot;1&quot;&gt;&#10;          &lt;mxGeometry height=&quot;20&quot; width=&quot;60&quot; x=&quot;365&quot; y=&quot;548&quot; as=&quot;geometry&quot; /&gt;&#10;        &lt;/mxCell&gt;&#10;        &lt;mxCell id=&quot;KelcQbCNuYDzjiUfYtOG-26&quot; parent=&quot;1&quot; style=&quot;shape=mxgraph.signs.science.microscope;html=1;pointerEvents=1;fillColor=#000000;strokeColor=none;verticalLabelPosition=bottom;verticalAlign=top;align=center;sketch=0;textShadow=1;&quot; value=&quot;&quot; vertex=&quot;1&quot;&gt;&#10;          &lt;mxGeometry height=&quot;41&quot; width=&quot;30&quot; x=&quot;465&quot; y=&quot;453&quot; as=&quot;geometry&quot; /&gt;&#10;        &lt;/mxCell&gt;&#10;        &lt;mxCell id=&quot;KelcQbCNuYDzjiUfYtOG-27&quot; parent=&quot;1&quot; style=&quot;shape=mxgraph.signs.tech.usb;html=1;pointerEvents=1;fillColor=#000000;strokeColor=none;verticalLabelPosition=bottom;verticalAlign=top;align=center;sketch=0;direction=south;textShadow=1;&quot; value=&quot;&quot; vertex=&quot;1&quot;&gt;&#10;          &lt;mxGeometry height=&quot;30&quot; width=&quot;64&quot; x=&quot;363&quot; y=&quot;594&quot; as=&quot;geometry&quot; /&gt;&#10;        &lt;/mxCell&gt;&#10;        &lt;mxCell id=&quot;KelcQbCNuYDzjiUfYtOG-28&quot; parent=&quot;1&quot; style=&quot;shape=mxgraph.signs.tech.rss;html=1;pointerEvents=1;fillColor=#000000;strokeColor=none;verticalLabelPosition=bottom;verticalAlign=top;align=center;sketch=0;textShadow=1;&quot; value=&quot;&quot; vertex=&quot;1&quot;&gt;&#10;          &lt;mxGeometry height=&quot;30&quot; width=&quot;30&quot; x=&quot;466.5&quot; y=&quot;550&quot; as=&quot;geometry&quot; /&gt;&#10;        &lt;/mxCell&gt;&#10;        &lt;mxCell id=&quot;KelcQbCNuYDzjiUfYtOG-29&quot; parent=&quot;1&quot; style=&quot;shape=mxgraph.signs.healthcare.mental_health;html=1;pointerEvents=1;fillColor=#000000;strokeColor=none;verticalLabelPosition=bottom;verticalAlign=top;align=center;sketch=0;textShadow=1;&quot; value=&quot;&quot; vertex=&quot;1&quot;&gt;&#10;          &lt;mxGeometry height=&quot;40&quot; width=&quot;40&quot; x=&quot;291&quot; y=&quot;453.5&quot; as=&quot;geometry&quot; /&gt;&#10;        &lt;/mxCell&gt;&#10;        &lt;mxCell id=&quot;KelcQbCNuYDzjiUfYtOG-30&quot; parent=&quot;1&quot; style=&quot;points=[];aspect=fixed;html=1;align=center;shadow=0;dashed=0;fillColor=#000000;strokeColor=none;shape=mxgraph.alibaba_cloud.hsm_hardware_security_module;textShadow=1;&quot; value=&quot;&quot; vertex=&quot;1&quot;&gt;&#10;          &lt;mxGeometry height=&quot;39&quot; width=&quot;36.62&quot; x=&quot;293.75&quot; y=&quot;545.25&quot; as=&quot;geometry&quot; /&gt;&#10;        &lt;/mxCell&gt;&#10;        &lt;mxCell id=&quot;KelcQbCNuYDzjiUfYtOG-35&quot; parent=&quot;1&quot; style=&quot;sketch=0;html=1;aspect=fixed;strokeColor=none;shadow=0;fillColor=#000000;verticalAlign=top;labelPosition=center;verticalLabelPosition=bottom;shape=mxgraph.gcp2.big_query&quot; value=&quot;&quot; vertex=&quot;1&quot;&gt;&#10;          &lt;mxGeometry height=&quot;40&quot; width=&quot;39.6&quot; x=&quot;375.2&quot; y=&quot;409&quot; as=&quot;geometry&quot; /&gt;&#10;        &lt;/mxCell&gt;&#10;      &lt;/root&gt;&#10;    &lt;/mxGraphModel&gt;&#10;  &lt;/diagram&gt;&#10;&lt;/mxfile&gt;&#10;"><defs/><g style="filter: drop-shadow(light-dark(rgba(61, 69, 116, 0.4), rgba(168, 175, 216, 0.4)) 3px 3px 1.7px);"><g data-cell-id="0"><g data-cell-id="1"><g data-cell-id="KelcQbCNuYDzjiUfYtOG-20"><g transform="translate(0.5,0.5)" style="filter: drop-shadow(light-dark(rgba(0, 0, 0, 0.25), rgba(237, 237, 237, 0.25)) 2px 3px 2px);"><rect x="4" y="4" width="270" height="260" fill="none" stroke="none" pointer-events="all"/><path d="M 79.57 134 C 79.57 62.21 106.19 4 139 4 C 171.84 4 198.43 62.21 198.43 134 C 198.43 205.79 171.81 264 139 264 C 106.19 264 79.57 205.79 79.57 134 Z M 139 252.98 C 169.05 252.98 193.39 199.71 193.39 134 C 193.39 68.27 169.05 15.02 139 15.02 C 108.95 15.02 84.61 68.29 84.61 134 C 84.61 199.71 108.95 252.98 139 252.98 Z M 168.72 182.84 C 103.2 218.75 36.81 225.99 20.41 199 C 4 172.01 43.8 121.04 109.28 85.13 C 174.8 49.22 241.19 42.01 257.59 69 C 274 95.97 234.2 146.96 168.72 182.84 Z M 247.57 74.51 C 232.56 49.8 171.76 56.44 111.83 89.28 C 51.85 122.14 15.42 168.81 30.46 193.49 C 45.47 218.2 106.24 211.56 166.2 178.72 C 226.15 145.86 262.58 99.19 247.57 74.51 Z M 168.72 85.13 C 234.2 121.04 274 172.01 257.59 199 C 241.19 225.99 174.77 218.75 109.28 182.84 C 43.8 146.96 4 95.97 20.41 69 C 36.81 42.01 103.2 49.25 168.72 85.13 Z M 30.46 74.51 C 15.45 99.22 51.88 145.86 111.83 178.72 C 171.78 211.59 232.56 218.2 247.57 193.49 C 262.58 168.78 226.15 122.14 166.2 89.28 C 106.24 56.41 45.47 49.8 30.46 74.51 Z" fill="#000066" stroke="none" pointer-events="all" style="fill: light-dark(rgb(0, 0, 102), rgb(224, 224, 255));"/><ellipse cx="139" cy="134" rx="22.10286062081558" ry="21.168280871670703" fill="#000066" stroke="none" pointer-events="all" style="fill: light-dark(rgb(0, 0, 102), rgb(224, 224, 255));"/></g></g><g data-cell-id="KelcQbCNuYDzjiUfYtOG-21"><g transform="translate(0.5,0.5)" style="filter: drop-shadow(light-dark(rgba(0, 0, 0, 0.25), rgba(237, 237, 237, 0.25)) 2px 3px 2px);"><rect x="100" y="86" width="78" height="78" fill="none" stroke="none" pointer-events="all"/><path d="M 120.5 96.94 C 120.05 96.93 120.14 96.88 119.9 96.64 C 119.75 96.49 119.56 96.61 119.5 96.25 C 119.47 96.07 119.46 95.8 119.63 95.69 C 120.08 95.4 120.75 95.5 121.11 95.76 C 121.39 95.97 120.92 96.95 120.5 96.94 Z M 139 86 C 117.47 86 100 103.47 100 125 C 100 146.53 117.47 164 139 164 C 160.53 164 178 146.53 178 125 C 178 103.47 160.53 86 139 86 Z M 139 87.8 C 146.63 87.8 153.72 90.09 159.62 94.03 C 159.58 94.27 159.37 94.46 159.06 94.71 C 158.84 94.89 158.64 95.02 158.63 95.55 C 158.63 95.94 158.02 96.36 158.35 96.84 C 158.86 97.6 159.87 98.02 160.24 97.63 C 160.58 97.28 159.76 97.31 159.76 96.34 C 159.76 95.77 160.22 95.04 160.51 94.64 C 161.53 95.37 162.52 96.14 163.46 96.97 C 163.38 97.09 163.31 97.23 163.25 97.39 C 163.18 97.58 163.19 98.4 163.26 98.58 C 163.57 99.29 163.21 98.94 163 98.68 C 162.76 98.37 162.44 98.33 162.18 98.28 C 161.69 98.19 161.84 98.5 161.33 98.04 C 161 97.74 160.75 98.12 161.08 98.37 C 161.37 98.59 161.66 98.74 161.4 98.86 C 160.6 99.26 160.34 99.06 159.86 99 C 159.19 98.93 159.38 99.26 158.94 99.32 C 158.63 99.36 158.63 99.26 158.43 99.44 C 157.99 99.84 158.05 99.65 157.78 99.87 C 157.62 99.99 157.38 100.43 157.17 100.38 C 156.61 100.24 156.95 99.74 156.6 99.62 C 156.3 99.52 156.27 99.75 156.29 100 C 156.34 100.52 156.13 100.54 155.83 100.46 C 155.49 100.38 155.56 100.37 155.23 100.73 C 155.1 100.86 154.94 100.84 155.02 101.14 C 155.06 101.31 154.9 101.34 154.82 101.42 C 154.66 101.56 154.81 101.54 154.6 101.76 C 154.14 102.24 154.08 102.03 153.76 101.74 C 153.32 101.36 153.59 101.18 153.27 100.78 C 152.61 99.97 152.9 99.96 153.61 100.36 C 154.21 100.68 155.18 100.65 155.3 100.06 C 155.45 99.33 153.48 98.31 153.02 98.27 C 152.36 98.22 152.56 97.84 152.2 97.75 C 151.87 97.67 152.07 97.72 151.7 97.3 C 151.05 96.56 151.12 96.78 150.19 96.86 C 149.07 96.94 149.04 97.2 148.6 97.18 C 148.05 97.15 147.79 98.14 147.02 98.51 C 146.4 98.81 145.89 99.18 146.73 99.28 C 147.45 99.36 146.78 100.14 146.28 100.59 C 146.01 100.84 145.52 101.6 145.19 101.65 C 144.77 101.72 144.49 102.28 144.05 102.63 C 143.66 102.94 143.37 102.83 143.33 103.32 C 143.22 104.44 143.38 105 143.67 105.47 C 143.98 105.95 144.25 105.33 144.63 105.34 C 144.97 105.35 144.82 105.26 145.18 105.23 C 145.75 105.2 145.38 105.67 145.86 106.27 C 146.31 106.82 146.01 106.96 146.26 107.02 C 146.48 107.07 146.43 106.89 146.75 106.63 C 146.91 106.49 147.33 106.86 147.31 106.32 C 147.27 105.19 147.39 105.39 147.82 105.02 C 148.27 104.64 147.33 104.52 147.35 103.97 C 147.36 103.5 147.73 102.63 147.95 102.32 C 148.27 101.88 148.8 101.96 148.78 101.48 C 148.76 100.68 149.14 100.46 149.59 100.56 C 150.63 100.78 149.46 102.02 149.12 102.33 C 148.8 102.62 149.12 102.71 149.08 103.39 C 149.06 103.72 149.33 104.03 149.66 104.23 C 150.09 104.49 150.24 103.95 150.5 103.95 C 150.93 103.94 150.95 103.75 151.2 103.73 C 151.73 103.69 151.74 102.98 152.38 103.65 C 152.72 104 151.68 104.61 151.31 104.66 C 150.42 104.78 150.73 104.93 150.22 105.06 C 149.76 105.18 149.72 105.26 149.8 105.5 C 149.99 106.04 149.66 106.16 149.52 106.13 C 149.16 106.02 149.11 105.9 148.96 106.17 C 148.71 106.6 148.89 106.69 148.71 106.91 C 148.02 107.77 147 108.08 146.7 108.07 C 145.67 108.02 145.81 108.31 145.3 108.29 C 144.43 108.23 144.69 108.38 144.1 108.52 C 143.47 108.66 143.55 108.47 143.27 108.73 C 142.97 109.01 143.06 109.23 142.59 109.65 C 142.22 109.99 142.19 110.06 142.24 109.67 C 142.27 109.4 142.18 109.41 141.95 109.16 C 141.75 108.95 141.71 109.22 141.69 108.83 C 141.66 108.51 141.51 108.53 141.21 108.09 C 140.78 107.45 140.83 107.43 140.82 107.25 C 140.77 106.77 141.07 106.91 140.91 106.57 C 140.8 106.34 140.57 106.63 140.48 105.99 C 140.45 105.75 140 105.9 139.73 105.99 C 139.4 106.09 139.2 106.43 139.13 106.85 C 139.06 107.32 139.61 107.73 139.78 108.01 C 139.94 108.26 140.13 108.02 140.47 108.35 C 140.71 108.58 140.71 108.69 140.5 108.82 C 139.92 109.2 140.17 109.13 139.92 109.4 C 139.65 109.67 139.82 109.78 139.67 110.18 C 139.46 110.73 139.84 110.97 140.4 110.71 C 140.74 110.55 140.85 110.44 141.09 110.48 C 141.51 110.53 141.43 110.34 141.61 110.3 C 142.22 110.17 141.39 110.7 141.1 110.86 C 140.48 111.21 140.51 111.06 140.28 111.06 C 139.84 111.06 139.72 111.42 140.04 111.6 C 140.71 111.99 140.51 112 140.76 112.4 C 141.02 112.84 141.44 113.1 140.98 113.8 C 140.69 114.23 140.48 113.89 139.7 113.84 C 138.65 113.78 138.72 113.93 138.38 113.99 C 138.15 114.03 138.12 114.04 138.22 114.24 C 138.4 114.63 138.34 115.34 138.26 115.65 C 138.1 116.29 138.06 116.61 138.25 117.01 C 138.48 117.48 138.7 116.81 139.24 117.52 C 139.45 117.8 139.51 117.67 139.7 117.52 C 140.05 117.25 140.23 117.49 140.52 117.31 C 140.77 117.15 140.58 117.05 140.94 116.9 C 141.23 116.77 141.47 116.51 141.46 116.16 C 141.43 115.47 141.56 115.61 141.61 115.58 C 141.84 115.43 141.86 115.21 142.13 115.01 C 142.49 114.74 142.49 114.86 142.6 114.43 C 142.71 113.98 142.96 113.84 143.27 113.99 C 143.5 114.09 143.56 114.34 144.09 113.85 C 144.74 113.24 144.91 113.54 145.16 114.11 C 145.55 114.97 146.45 115.4 146.75 115.66 C 146.87 115.77 147.07 116.01 147.05 116.26 C 147.03 116.42 146.91 116.8 146.69 116.77 C 146.23 116.72 146.52 117.09 146.61 117.21 C 146.83 117.52 146.87 116.83 147.1 116.82 C 147.37 116.8 147.41 116.23 147.36 116.09 C 147.18 115.6 147.92 116.01 147.86 115.7 C 147.8 115.36 146.63 114.89 146.44 114.43 C 146.27 114.01 145.71 113.88 145.75 113.28 C 145.79 112.74 146.57 113.33 146.69 113.5 C 147.14 114.13 147.4 114.16 147.57 114.25 C 148.42 114.71 148.37 114.99 148.36 115.19 C 148.27 116.26 148.81 115.71 148.84 116.75 C 148.86 117.66 149.84 117.32 150 117.19 C 150.7 116.65 149.35 116.29 149.75 115.79 C 150.4 114.97 150.78 115.52 150.97 115.94 C 151.14 116.33 150.95 116.81 151.32 117.14 C 151.65 117.43 151.54 117.55 152.08 117.7 C 152.59 117.85 152.42 117.25 152.9 117.67 C 153.05 117.8 153.36 117.93 153.64 117.71 C 154.07 117.35 154.3 118.01 154.3 118.65 C 154.3 118.67 154.1 119.08 154.1 119.57 C 154.1 119.94 153.52 120.36 153.04 120.27 C 152.15 120.1 151.72 120.59 151.17 120.27 C 150.65 119.96 150.36 120.05 149.98 119.79 C 149.16 119.21 148.69 119.46 148.59 119.75 C 148.44 120.17 148.82 120.65 147.71 120.47 C 147 120.36 147.23 119.85 146.17 119.55 C 145.41 119.33 145.02 118.87 145.08 118.72 C 145.38 118.06 145.14 117.99 145.27 117.55 C 145.45 116.92 144.49 117.31 142.65 117.34 C 141.75 117.36 141.79 117.56 141.61 117.63 C 140.88 117.89 140.84 118.1 140.6 118.13 C 140.22 118.18 140.18 117.9 139.99 118.08 C 139.88 118.18 139.82 118.14 139.64 118 C 139.37 117.77 139.17 118.16 139.13 118.35 C 138.95 119.21 138.56 118.7 138.08 119.48 C 137.5 120.4 138.53 120.77 136.98 121.9 C 136.06 122.59 135.86 123.62 135.58 123.86 C 134.86 124.45 135.17 125.27 135.43 126.22 C 135.84 127.78 134.93 127.27 135.29 128.69 C 135.51 129.61 136.07 129.67 136.39 130.61 C 136.78 131.75 137.33 131.79 137.77 132.31 C 138.32 132.96 138.52 132.92 139.09 132.7 C 139.95 132.37 139.92 132.91 140.22 132.76 C 141.4 132.18 141.3 132.42 141.72 132.23 C 142.77 131.75 142.97 131.81 143.41 132.68 C 143.7 133.23 144.16 132.62 144.36 132.75 C 145.05 133.23 144.84 133.57 144.86 133.92 C 144.93 135.09 144.65 134.71 144.63 135.26 C 144.59 136.2 144.91 135.54 145.75 137.54 C 146.26 138.73 145.95 139 146.23 139.81 C 146.59 140.84 145.84 140.9 145.88 141.49 C 145.93 142.16 145.52 141.83 145.59 142.91 C 145.66 143.77 145.81 143.43 145.98 144.25 C 146.2 145.26 146.57 144.43 146.57 146.83 C 146.57 148.07 147 147.86 147.3 148.82 C 147.59 149.74 147.8 149.89 147.59 150.33 C 147.42 150.67 147.37 150.89 148 151.26 C 148.27 151.42 148.8 150.99 149.2 150.93 C 149.68 150.86 149.96 151.04 150.56 150.75 C 150.88 150.6 152.24 148.68 152.48 148.15 C 152.9 147.24 152.21 147.01 153.04 146.62 C 153.5 146.4 153.86 146.21 153.53 145.23 C 153.28 144.45 153.41 144.27 153.62 143.93 C 154.4 142.68 154.36 143.7 155.28 142.51 C 155.59 142.11 155.64 140.46 155.59 139.91 C 155.53 139.3 155.07 139.4 155.31 138.72 C 155.47 138.24 155.27 137.62 155.27 137.42 C 155.25 136.79 155.82 136.28 156.13 135.86 C 156.5 135.35 156.21 135.52 156.61 134.98 C 157.71 133.5 157.11 134.77 158.16 133.42 C 158.77 132.64 158.73 132.44 159.04 131.51 C 159.26 130.84 159.45 131.18 159.63 130.17 C 159.74 129.52 159.43 129.66 159.17 129.74 C 158.75 129.87 158.74 129.61 158.41 129.89 C 157.99 130.25 157.89 130.01 157.59 130.01 C 156.95 130.01 157.14 129.92 157.03 129.78 C 156.72 129.35 156.85 129.35 156.92 129.24 C 157.05 129.03 157.34 129.21 157.71 128.71 C 157.87 128.49 158.09 128.39 158.61 128.28 C 160.08 127.98 160.04 127.58 160.41 127.18 C 160.96 126.57 161.13 126.72 161.35 126.54 C 161.57 126.36 161.67 126.02 161.74 125.96 C 162.45 125.3 162.75 124.89 162.74 124.52 C 162.73 123.91 161.39 123.25 161 123.42 C 160.26 123.72 160.11 123.56 159.72 123.34 C 159.05 122.97 159.51 122.78 159.23 122.46 C 158.84 122.03 158.94 121.98 158.79 121.7 C 158.45 121 158.65 120.73 159.09 120.73 C 159.54 120.74 159.65 121.63 159.89 121.89 C 160.37 122.4 160.82 122.58 161.26 122.41 C 161.83 122.18 161.93 122.72 162.48 123 C 163.04 123.28 163.11 122.84 163.37 123.06 C 163.53 123.21 163.2 123.33 163.58 123.76 C 164.26 124.5 164.02 124.57 164.1 124.96 C 164.23 125.55 164.45 125.47 164.83 125.32 C 165.16 125.17 165.07 125.6 165.06 125.94 C 165.04 126.36 165.2 126.24 165.16 126.61 C 165.04 127.66 165.28 127.53 165.35 128.23 C 165.48 129.7 165.99 131.13 166.14 131.15 C 166.53 131.23 166.23 130.99 166.6 130.83 C 166.93 130.68 166.93 130.67 166.95 130.07 C 166.96 129.81 167.15 129.69 167.15 129.01 C 167.15 127.84 167.61 127.94 168.07 127.41 C 169.5 125.76 169.37 126.33 169.53 126.11 C 169.69 125.9 169.61 125.82 169.76 125.6 C 170.03 125.19 170.19 125.7 170.61 125.26 C 171.15 124.7 171.18 125.24 171.25 125.7 C 171.34 126.21 171.42 126.01 171.61 126.3 C 171.8 126.6 171.72 126.75 171.84 126.91 C 172.22 127.44 172.44 126.76 172.84 128.33 C 173.48 130.87 172.78 130.69 172.97 131.39 C 173.16 132.07 173.29 131.71 173.31 132.8 C 173.33 133.54 173.45 134.17 174.07 134.35 C 174.45 134.47 174.18 134.03 174.19 133.55 C 174.19 132.73 174.05 132.75 173.68 132.11 C 172.89 130.71 173.42 130.7 173.46 130.13 C 173.52 129.04 174.05 129.53 174.36 130.3 C 174.75 131.27 175.27 130.98 175.78 130.61 C 175.41 133.07 174.8 135.43 173.98 137.7 C 173.69 137.63 173.37 137.54 173.35 137.27 C 173.33 136.97 173.54 136.96 173.52 136.54 C 173.49 135.96 173.1 136.21 173.12 135.76 C 173.14 135.18 172.57 135.36 172.25 134.31 C 172.12 133.89 171.65 133.4 171.4 133.59 C 171.09 133.83 171.74 134.11 171.73 135.02 C 171.73 135.5 172.19 135.46 172.35 136.19 C 172.47 136.77 172.65 137.01 172.79 137.35 C 173.08 138.07 173.46 138.17 173.73 138.36 C 172.33 142.02 170.35 145.41 167.93 148.4 C 167.7 148.25 167.44 148.05 167.32 147.84 C 167.18 147.57 167.4 147.27 167.17 147.01 C 167 146.83 166.77 147.03 166.78 147.28 C 166.79 147.74 166.52 147.91 166.53 148.1 C 166.55 148.79 166.3 148.63 166.2 148.95 C 165.99 149.66 165.74 149.66 165.51 149.36 C 165.05 148.76 165.01 148.9 164.65 148.8 C 164.27 148.68 164.57 147.88 164.99 147.57 C 165.31 147.33 165.2 147.17 164.96 147.15 C 164.15 147.11 163.77 146.9 163.3 147.09 C 162.8 147.3 162.94 147.51 162.58 148.01 C 162.21 148.52 162.05 148.32 161.88 148.22 C 161.67 148.1 161.41 148.08 161.18 148.24 C 160.48 148.73 160.32 149.16 159.97 149.36 C 159.64 149.56 159.46 149.82 159.47 150.06 C 159.5 150.59 158.84 150.83 158.69 150.85 C 158.41 150.88 158.49 150.75 157.93 150.96 C 157.43 151.15 156.76 151.78 156.35 152.2 C 156.25 152.3 156.19 152.27 156.19 152.57 C 156.17 153.12 156.01 153.1 155.97 153.71 C 155.92 154.51 156.07 155.11 156.13 155.13 C 156.27 155.19 156.11 155.31 156.05 155.55 C 155.92 156.17 156.49 155.99 155.84 157.13 C 155.67 157.42 155.85 157.76 156.18 158.01 C 151.04 160.69 145.2 162.2 139 162.2 C 132.02 162.2 125.5 160.29 119.92 156.95 C 120.18 156.57 120.23 156.05 119.63 155.92 C 119.37 155.9 119.35 155.72 118.89 155.48 C 118.5 155.17 117.89 154.59 117.27 154.2 C 117.03 154.18 116.85 154.37 116.54 154.08 C 116.35 153.91 116.24 153.79 116.28 153.51 C 116.29 153.37 115.93 153.21 115.74 153.16 C 115.69 152.94 115.88 152.74 115.71 152.53 C 115.31 152.15 115.7 151.77 115.5 151.68 C 115.37 151.61 114.98 152 115.05 152.28 C 115.14 152.52 115.49 152.79 115.22 152.95 C 115.08 153.05 114.92 153.14 114.75 153.22 C 106.82 146.4 101.8 136.29 101.8 125 C 101.8 121.63 102.25 118.37 103.08 115.27 C 103.45 115.91 103.08 116.25 103.49 116.46 C 103.83 116.61 103.93 117.43 103.91 117.99 C 103.91 118.43 104.41 118.3 104.43 118.62 C 104.42 119.03 104.59 118.94 104.73 119.41 C 104.84 119.67 105.05 119.33 105.14 119.59 C 105.47 120.47 105.45 121.82 106.01 122.86 C 106.21 123.2 106.14 123.58 105.97 123.98 C 105.68 124.75 106.37 125.3 106.99 126.11 C 107.26 126.36 107.35 126.26 107.59 126.54 C 107.87 126.84 108.1 127.1 108.44 127.14 C 109.23 127.24 109.25 127.29 109.35 127.67 C 109.58 128.38 109.9 128.71 110.26 128.87 C 110.87 129.13 110.92 129.73 110.91 130.11 C 110.91 130.53 111.01 130.93 111.16 131.17 C 111.5 131.73 111.55 131.65 111.78 132.04 C 111.96 132.28 112.12 132.57 112.34 132.32 C 112.68 131.87 112.8 132.21 113.03 132.57 C 113.43 133.13 113.86 132.93 113.67 133.55 C 113.4 134.33 113.39 134.76 113.36 135.2 C 113.36 136.15 113.93 136.4 113.84 136.82 C 113.7 137.49 114.12 137.72 114.43 137.96 C 115.18 138.56 115.8 138.54 116.03 139.14 C 116.36 140.02 116.89 140.07 117.11 140.51 C 117.51 141.23 117.62 141.22 118.66 141.45 C 119.55 141.64 120.05 141.89 120.23 142.46 C 120.42 143.22 120.67 143.57 120.93 144.33 C 121.14 144.93 121.16 145.38 121.45 146.07 C 121.59 146.41 121.73 146.65 121.83 147.27 C 122.03 148.49 122.61 147.98 122.61 149.16 C 122.61 149.7 122.75 150.3 122.96 150.92 C 123.12 151.32 123.04 151.6 123.38 151.84 C 123.65 152 123.57 152.15 123.64 152.42 C 123.7 152.68 123.9 152.76 123.92 153.2 C 123.92 153.88 124.31 154.57 124.52 154.92 C 124.82 155.33 124.49 155.59 124.98 155.77 C 125.32 155.92 125.29 156.16 125.2 156.41 C 125.14 156.64 125.22 156.85 125.37 157.06 C 125.89 157.9 126.29 158.67 126.9 158.96 C 128.01 159.51 128.77 159.78 129.62 159.72 L 129.62 159.72 C 129.83 159.71 130.11 159.5 129.85 159.19 C 129.65 158.95 129.29 159.03 128.71 158.58 C 128.32 158.28 128.24 157.74 128.18 157.48 C 127.9 156.28 127.78 156.41 127.89 156.09 C 128.07 155.52 127.93 155.34 127.45 155.09 C 126.86 154.77 127.2 154.64 127.25 154.06 C 127.32 153.2 127.56 152.97 127.04 152.62 C 126.67 152.37 126.54 152.27 127.01 152.06 C 127.3 151.94 127.29 151.86 127.18 151.59 C 127 151.12 127.29 150.68 127.71 150.52 C 128.46 150.26 128.39 149.36 127.83 148.83 C 127.2 148.22 127.7 148.45 128.17 148.32 C 128.9 148.13 128.41 147.88 128.79 147.17 C 129.15 146.5 129.09 146.43 129.08 145.97 C 129.06 145.29 129.18 145.17 129.11 144.62 C 129.07 144.29 128.48 143.86 128.85 143.16 C 129.15 142.59 129.2 142.87 129.41 142.68 C 129.95 142.19 129.67 142.2 130.05 141.91 C 130.74 141.39 130.39 141.31 130.53 140.06 C 130.71 138.39 129.9 137.28 129.96 137.01 C 130.05 136.55 130.2 136.41 130.35 135.93 C 130.59 135.14 130.29 135.7 130.6 134.75 C 130.77 134.24 130.37 132.95 129.62 132.74 C 128.71 132.49 128.9 132.2 128.22 132.14 C 127.3 132.06 127.08 132.55 125.99 132.05 C 124.94 131.57 124.61 132.03 124.22 131.66 C 123.71 131.18 123.79 130.21 122.37 129.52 C 121.43 129.06 121.17 130.1 120.35 129.45 C 119.79 129.01 119.66 129.25 119.23 128.97 C 118.68 128.63 118.6 127.57 118.09 128.01 C 117.69 128.35 117.93 128.1 117.36 127.84 C 116.44 127.41 116.19 128.17 116.64 128.34 C 117.24 128.57 117.51 128.43 117.37 128.61 C 116.91 129.22 117.19 128.66 116.68 128.81 C 115.81 129.06 116.33 128.83 115.43 128.53 C 115.19 128.45 114.88 128.34 114.64 128.66 C 114.19 129.29 114.01 129.23 113.52 129.75 C 113.38 129.9 113.44 131.25 113.44 131.83 C 113.45 132.5 113.3 132.15 113.08 131.81 C 112.61 131.12 112.5 131.97 112.06 131.41 C 111.41 130.57 111.77 129.66 111.94 129.47 C 112.41 128.93 112.06 127.94 111.65 127.9 C 111.38 127.86 110.61 127.67 111.04 127.11 C 111.66 126.3 111.18 126.49 111.45 126.05 C 111.85 125.4 111.93 125.29 111.5 125.16 C 110.98 125.01 110.9 125.26 110.6 125.65 C 110.02 126.39 110.24 125.86 109.6 125.98 C 109.37 126.02 109.17 126.51 108.79 125.28 C 108.19 123.32 109.3 122.51 109.25 122.22 C 109.14 121.61 109.53 121.35 109.82 121.26 C 110.88 120.93 111.13 120.6 111.46 121.23 C 111.91 122.1 112.44 121.2 112.85 121.24 C 114.56 121.39 113.71 124.42 114.37 124.05 C 115.1 123.64 114.1 121.37 115.59 120.79 C 116.46 120.45 117.48 120.11 117.35 119.37 C 117.2 118.57 117.6 118.69 117.76 118.53 C 118.13 118.19 117.36 118.25 118.44 117.65 C 120.19 116.66 120.53 116.29 121.29 116.27 C 122 116.25 121.52 116.63 123 116.34 C 124.96 115.95 124.48 114.96 123.84 115.22 C 122.75 115.68 123.1 114.63 123.2 114.17 C 123.42 113.21 122.87 113.8 122.47 113.76 C 121.99 113.7 121.95 114.3 121.59 113.9 C 121.4 113.68 121.55 113.5 122.14 113.31 C 122.52 113.19 122.51 112.72 123.68 113.1 C 124.42 113.35 125.04 113.37 125.45 113.12 C 126.04 112.76 126.48 112.82 126.66 112.44 C 126.9 111.93 125.6 111 125.54 110.52 C 125.47 109.94 125.28 110.06 125.46 109.66 C 125.8 108.91 125.51 108.88 125.49 108.35 C 125.48 107.9 125.58 107.57 125.2 107.81 C 124.4 108.35 124.27 108.64 123.88 107.68 C 123.75 107.35 124.04 107.01 124.04 106.77 C 124.06 106.29 123.86 106.35 123.7 106.03 C 123.53 105.7 123.8 105.52 123.26 105.55 C 122.71 105.58 122.88 105.45 122.48 105.46 C 121.89 105.47 121.99 106.63 121.67 106.83 C 121.15 107.15 121.14 107.17 121.18 107.52 C 121.23 108.04 121.2 109 120.56 109.28 C 119.59 109.7 119.77 111.09 118.97 111.34 C 118.48 111.48 118.48 110.36 118.65 109.78 C 118.77 109.38 118.77 109.22 118.4 109.08 C 117.44 108.7 117.75 108.23 117.38 107.68 C 117 107.13 116.45 107.16 116.53 106.79 C 116.69 106.05 116.51 106.34 116.37 106.07 C 115.86 105.12 117.13 104.64 117.47 104.42 C 118.16 103.97 118.31 103.48 119.19 103.52 C 119.79 103.55 119.77 103.39 119.93 103.44 C 120.37 103.58 119.75 104.24 120.37 104.24 C 120.81 104.24 121.17 103.85 120.95 103.39 C 120.66 102.79 121.53 102.85 122.07 102.53 C 122.88 102.04 122.11 101 122.71 100.52 C 123.67 99.72 124.46 99.94 124.69 100.84 C 124.93 101.83 125.48 101.94 125.02 102.44 C 124.4 103.13 124.26 103.73 123.9 103.72 C 123.04 103.7 122.19 104.17 122.56 104.59 C 122.92 104.99 123.06 104.31 124.12 105.21 C 124.79 105.78 123.95 105.64 125.17 106.1 C 125.9 106.37 125.68 105.89 125.28 105.59 C 124.82 105.24 125.26 104.67 125.87 105.24 C 126.3 105.64 126.61 105.04 126.22 104.56 C 125.8 104.06 126.3 103.46 126.51 103.84 C 126.71 104.2 126.83 103.89 126.9 104.26 C 127.02 104.96 127.23 104.58 127.73 104.05 C 127.97 103.75 128.1 103.15 127.72 102.75 C 127.43 102.45 127.4 102.21 127.32 102.13 C 127.26 102.05 127.09 101.98 127 101.89 C 126.87 101.73 126.85 101.57 126.98 101.32 C 127.1 101.09 127.2 100.77 126.9 100.46 C 126.54 100.15 126.18 99.9 126.42 99.29 C 126.49 99.05 126.46 98.89 126.22 98.89 C 125.92 98.87 125.52 98.69 125.56 98.45 C 125.62 98.07 125.63 97.92 125.3 97.86 C 124.8 97.82 124.38 97.84 123.55 97.58 C 122.59 97.35 122.63 97.65 122.53 97.64 C 122.29 97.64 122.45 97.31 122.49 96.99 C 122.53 96.81 122.32 96.87 122.48 96.75 C 122.6 96.64 122.97 96.28 122.75 96.14 C 122.43 96.01 122.38 96.46 122.17 96.81 C 122.05 97.02 121.83 97.52 121.92 97.58 C 122.01 97.63 122.1 97.49 122.17 97.56 C 122.27 97.67 122.14 97.75 122.26 97.82 C 122.52 98.01 122.19 98.14 122.13 98.06 C 122.09 97.88 121.91 98.16 121.79 98.24 C 121.53 98.45 121.53 98.58 121.59 98.75 C 121.77 99.18 121.65 99.24 121.69 99.49 C 121.75 100.03 121.55 100.08 121.85 100.34 C 122.19 100.62 121.97 100.73 121.85 100.88 C 121.59 101.18 121.5 101.07 121.42 101.2 C 121.3 101.4 121.39 101.44 121.22 101.64 C 120.95 101.92 120.73 102.02 120.67 101.78 C 120.63 101.55 120.52 101.46 120.32 101.45 C 120.03 101.44 120.01 101.25 120.09 100.85 C 120.11 100.72 119.99 100.67 120.01 100.62 C 120.07 100.54 120.1 100.34 120.07 100.28 C 119.87 99.97 119.94 99.76 120.26 99.49 C 120.84 99.02 120.06 98.89 120.05 98.4 C 120.06 98.07 120.46 97.83 121.15 97.8 C 121.36 97.79 121.83 97.45 121.88 97.12 C 121.9 97.03 121.94 96.87 121.89 96.82 C 121.71 96.72 121.61 96.82 121.51 96.88 C 121.37 96.96 121.31 97.07 121.37 97.26 C 121.44 97.58 121.16 97.72 120.91 97.72 C 120.45 97.73 120.49 97.55 120.16 97.44 C 119.73 97.33 119.71 97.52 119.55 97.52 C 119.1 97.48 119.07 97.72 118.74 97.95 C 118.52 98.16 118.57 98.46 118.72 98.51 C 118.9 98.57 119.01 98.66 119.03 98.82 C 119.05 99.08 119.18 99.18 119.38 99.17 C 119.83 99.17 119.86 99.39 119.73 99.66 C 119.62 99.86 119.64 99.98 119.73 100.15 C 120.1 100.54 119.84 100.81 119.45 101.08 C 119.08 101.34 118.71 101.46 118.4 101.35 C 117.75 101.14 117.56 101.06 116.93 101.12 C 116.46 101.13 116.33 101.02 116.24 100.67 C 116.18 100.43 115.92 100.55 115.81 100.61 C 114.72 101.2 114.78 100.71 114.05 100.71 C 113.64 100.72 113.31 100.71 113.42 100.47 C 113.68 100.14 113.41 100.08 113.02 100.01 L 113.48 99.39 C 114.35 100.21 114.79 100.3 115.64 99.97 C 115.94 99.87 116.39 99.76 116.54 100.07 C 116.78 100.45 116.9 100.41 117.57 100.2 C 118.14 100.03 118.31 99.91 117.91 99.42 C 117.24 98.66 117.57 98.52 117.6 97.94 C 117.73 97.4 116.58 97.39 116.01 97.4 C 115.91 97.38 115.97 97.28 115.81 97.24 L 116.91 96.46 C 117.61 96.47 118.28 96.56 118.59 96.22 C 118.83 95.95 118.67 95.76 118.15 95.53 L 119.42 94.61 C 119.69 94.39 119.75 94.62 120.01 94.61 C 120.27 94.59 120.46 94.63 120.51 94.86 C 120.54 95.1 120.68 95.25 120.94 95.23 C 121.36 95.21 121.47 95.05 121.33 94.66 C 121.09 94.21 121.21 94.01 120.52 93.97 L 123.2 92.52 C 123.25 92.85 123.22 93.09 123.16 93.31 C 123.11 93.6 123.04 93.99 122.8 94.02 C 122.49 94.07 122.17 93.66 121.97 94.01 C 121.73 94.39 122.32 94.74 122.18 94.97 C 121.76 95.75 122.78 95.44 122.86 95.71 C 122.94 95.91 122.88 96.07 123.38 95.93 C 123.84 95.85 124.34 95.93 124.84 95.9 C 125.39 95.88 125.34 95.29 126.28 94.58 C 126.44 94.45 126.68 93.87 127.23 93.51 C 127.68 93.38 127.92 93.02 128.2 92.65 C 128.48 92.25 128.82 92.13 129.24 91.95 C 129.75 91.75 130.01 91.59 130.17 91.37 C 130.3 91.18 130.85 90.88 131.22 90.84 C 131.51 90.79 132.54 90.28 132.41 89.86 C 132.27 89.31 129.88 89.49 129.44 89.66 C 129.07 89.78 128.77 89.39 128.51 89.61 C 128.35 89.76 128.08 89.68 127.62 89.84 C 126.93 90.11 126.44 90.15 126.02 90.13 C 130.06 88.62 134.43 87.8 139 87.8 Z M 138.86 90.35 C 138.33 90.34 137.83 90.44 137.47 90.71 C 136.59 91.37 137.06 90.89 136.55 90.95 C 135.88 91.02 136.02 91.32 135.71 91.51 C 135.45 91.67 135.73 92.11 135.42 92.13 C 135.14 92.15 135.42 91.6 135 91.61 C 133.82 91.63 133.57 91.91 133.11 91.99 C 131.74 92.21 131.87 92.64 131.05 92.97 C 130.79 93.08 130.43 93.17 130.87 93.37 C 131.17 93.5 131.17 93.72 130.81 93.89 C 130.21 94.16 130.27 93.8 129.35 94.45 C 129.05 94.66 129.53 94.9 129.3 95.11 C 128.99 95.39 129.08 95.45 129.25 95.65 C 129.61 96.06 129.25 95.51 130.91 95.58 C 131.91 95.62 131.77 95.8 132.04 96.02 C 132.45 96.36 132.46 97 132.39 97.29 C 132.29 97.67 132.26 97.86 132.6 97.89 C 133.58 97.99 133.45 98.25 133.45 98.84 C 133.45 99.6 132.58 99.48 132.52 100.11 C 132.46 100.79 132.14 100.95 132.57 101.57 C 133.07 102.29 132.47 102.11 133.12 102.75 C 133.53 103.17 133.3 103.4 133.69 103.33 C 134.11 103.25 134.27 103.59 134.49 103.65 C 134.86 103.74 134.82 103.21 135.06 102.78 C 135.32 102.32 135.31 102.41 135.47 102.12 C 135.7 101.72 135.61 101.28 135.9 100.92 C 136.13 100.64 136.47 100.93 136.96 100.62 C 137.71 100.16 138.28 99.11 139.44 99.18 C 139.94 99.21 140.33 98.58 140.78 98.19 C 141.06 97.94 140.54 97.67 140.92 97.32 C 141.25 97.02 141.2 96.88 141.22 96.47 C 141.25 95.91 141.34 95.56 141.53 95.21 C 141.62 95.05 141.31 94.96 141.28 94.71 C 141.25 94.5 141.53 94.18 141.52 93.94 C 141.5 93.54 141.86 93.45 142.08 93.04 C 142.46 92.71 142.61 92.54 142.67 92 C 142.72 91.42 142.21 91.85 141.83 91.86 C 140.53 91.9 141.74 91.51 141.42 91.02 C 141.29 90.83 140.02 90.35 138.86 90.35 Z M 152.54 93.07 C 152.25 93.07 151.92 93.11 151.54 93.22 C 151.4 93.26 151.16 93.66 151.06 93.67 C 150.89 93.7 150.95 93.42 150.42 93.67 C 150.12 93.81 149.6 93.42 149.41 94.08 C 149.22 94.79 149.54 94.57 149.73 95.03 C 149.95 95.55 149.75 95.62 149.96 95.9 C 150.17 96.19 150.21 95.97 150.64 96.31 C 151.1 96.68 151.63 95.88 151.63 95.55 C 151.62 95.05 152.27 95.28 152.24 95.68 C 152.23 95.91 152.45 95.92 152.71 95.93 C 152.99 95.94 153.48 95.7 153.01 95.39 C 152.22 94.87 151.66 94.83 151.76 94.27 C 151.79 94.11 152.31 94.18 152.53 94.3 C 153.27 94.71 153.6 94.48 153.8 94.24 C 154.08 93.93 154.3 93.71 153.85 93.46 C 153.58 93.31 153.16 93.09 152.54 93.07 Z M 140.52 100.94 C 140.46 100.95 140.41 100.96 140.35 100.98 C 139.98 101.1 139.52 101.15 139.27 101.11 C 139.06 101.07 138.94 101.5 138.61 101.5 C 138.29 101.51 138.66 101.03 138.12 101.12 C 137.88 101.16 137.6 101.51 137.63 101.76 C 137.78 102.7 138.18 102.54 138.67 102.78 C 139.41 103.14 139.6 103.01 139.93 102.66 C 140.23 102.35 141.56 102.02 141.09 101.42 C 141.03 101.34 140.88 100.93 140.52 100.94 Z M 138.96 108.08 C 138.59 108.09 138.89 108.31 138.55 108.41 C 138.29 108.48 138.52 108.69 138.45 108.9 C 138.35 109.21 138.09 109.28 138.12 109.7 C 138.15 110.18 138.62 110.12 138.86 109.96 C 139.08 109.82 139.42 109.57 139.45 109.28 C 139.48 108.94 139.1 108.82 139.32 108.56 C 139.53 108.33 139.35 108.07 138.96 108.08 Z M 154.86 112.41 C 154.92 112.41 154.98 112.42 155.04 112.42 C 155.53 112.51 154.98 113.14 154.78 113.28 C 154.4 113.53 154.44 113.62 154.62 113.74 C 154.98 113.99 155.09 114.29 155.4 114.56 C 155.62 114.75 156.34 114.92 156.07 115.38 C 155.92 115.62 155.56 115.83 155.06 115.77 C 154.58 115.72 154.25 115.37 153.52 115.31 C 152.9 115.27 152.52 115.66 152.03 115.62 C 151.22 115.55 151.28 114.96 151.45 114.42 C 151.63 113.86 152 113.01 152.46 112.97 C 152.98 112.93 152.96 113.44 153.03 113.66 C 153.12 113.94 153.31 114.09 153.57 113.98 C 153.91 113.83 154.12 113.62 153.78 113.44 C 153.44 113.27 153.62 112.88 153.92 112.82 C 154.3 112.74 154.46 112.43 154.86 112.41 Z M 126.42 113.84 C 126.24 113.85 126.11 114.24 125.98 114.42 C 125.72 114.78 125.06 114.86 125.16 115.22 C 125.22 115.46 125.32 115.47 125.81 115.49 C 126.18 115.51 126.41 115.75 126.57 115.85 C 126.96 116.1 126.98 116.38 127.3 116.14 C 127.5 116 127.39 115.59 127.13 115.25 C 126.78 114.78 127.05 114.76 126.84 114.56 C 126.48 114.22 126.8 114.15 126.56 113.91 C 126.51 113.86 126.46 113.84 126.42 113.84 Z M 153.5 121.8 C 153.76 121.78 154.11 122.17 154.42 122.92 C 154.89 123.99 155.4 124.09 155.26 124.71 C 155.02 125.79 155.64 125.72 155.98 126.14 C 156.23 126.46 156.14 126.94 156.48 127.32 C 156.61 127.46 157.08 128.48 156.61 128.84 C 156.27 129.1 156.03 128.26 155.74 128.04 C 154.86 127.35 155.48 126.97 154.91 126.44 C 154.68 126.22 154.51 126.06 154.64 125.84 C 154.78 125.62 154.66 124.88 154.28 124.58 C 153.9 124.28 154.17 124.2 153.99 123.74 C 153.88 123.46 153.65 123.33 153.54 122.83 C 153.44 122.41 153.3 122.4 153.25 122.15 C 153.21 121.96 153.32 121.87 153.39 121.83 C 153.43 121.81 153.46 121.8 153.5 121.8 Z M 114.02 125.03 C 113.89 125.02 113.78 125.08 113.7 125.24 C 113.42 125.87 114.9 125.84 115.16 126.5 C 115.34 126.98 115.54 127.42 116.04 127.19 C 116.41 127.02 116.24 126.76 115.71 126.35 C 115.45 126.14 115.4 125.82 115.05 125.74 C 114.92 125.7 115.1 125.52 114.83 125.39 C 114.52 125.24 114.23 125.04 114.02 125.03 Z M 158.24 140.61 C 158.13 140.62 158.03 140.74 157.98 141 C 157.95 141.19 157.82 141.15 157.62 141.4 C 157.53 141.51 157.48 141.68 157.35 141.81 C 157.2 141.95 156.95 142.07 156.8 142.14 C 156.24 142.41 156.11 143.04 156.32 143.46 C 156.51 143.83 156.24 143.9 155.99 144.55 C 155.67 145.37 155.98 146.28 156.58 146.4 C 157.23 146.53 157.73 144.5 157.84 143.82 C 157.92 143.29 158.04 143.51 158.18 142.76 C 158.28 142.24 158.61 141.93 158.62 141.5 C 158.63 140.94 158.43 140.61 158.24 140.61 Z" fill="#ffffff" stroke="#36393d" stroke-miterlimit="10" pointer-events="all" style="fill: light-dark(rgb(255, 255, 255), rgb(18, 18, 18)); stroke: light-dark(rgb(54, 57, 61), rgb(186, 189, 192));"/></g></g><g data-cell-id="KelcQbCNuYDzjiUfYtOG-22"><g transform="translate(0.5,0.5)" style="filter: drop-shadow(light-dark(rgba(0, 0, 0, 0.25), rgba(237, 237, 237, 0.25)) 2px 3px 2px);"><rect x="109" y="162" width="60" height="20" fill="none" stroke="none" pointer-events="all"/></g><g style="filter: drop-shadow(light-dark(rgba(0, 0, 0, 0.25), rgba(237, 237, 237, 0.25)) 2px 3px 2px);"><g fill="#000000" font-family="Verdana" text-anchor="middle" font-size="15px" style="fill: light-dark(rgb(0, 0, 0), rgb(255, 255, 255));"><text x="139" y="178.5"><tspan><tspan font-weight="bold"><tspan>ToESS</tspan></tspan></tspan></text></g></g></g><g data-cell-id="KelcQbCNuYDzjiUfYtOG-26"><g transform="translate(0.5,0.5)"><rect x="209" y="67" width="30" height="41" fill="none" stroke="none" pointer-events="all"/><path d="M 232.45 103.82 C 235.81 101.05 237.94 97.15 237.94 92.79 C 237.94 87.43 234.72 82.59 229.71 79.87 L 235.33 71.38 L 234.44 70.93 L 235.83 68.83 L 232.2 67 L 230.81 69.1 L 229.88 68.63 L 216.09 89.53 L 217.3 90.14 L 215.59 92.73 L 218.61 94.25 L 220.33 91.67 L 221.53 92.27 L 227.33 83.48 C 230.89 85.46 233.17 88.94 233.17 92.79 C 233.17 98.88 227.51 103.82 220.55 103.82 C 215.9 103.82 210.39 103.82 210.39 103.82 L 210.39 108 L 239 108 L 239 103.82 C 239 103.82 234.76 103.82 232.45 103.82 Z" fill="#000000" stroke="none" pointer-events="all" style="fill: light-dark(rgb(0, 0, 0), rgb(237, 237, 237));"/><path d="M 210.12 92.96 L 209 94.67 L 220.66 100.58 L 221.77 98.87 Z" fill="#000000" stroke="none" pointer-events="all" style="fill: light-dark(rgb(0, 0, 0), rgb(237, 237, 237));"/></g></g><g data-cell-id="KelcQbCNuYDzjiUfYtOG-27"><g transform="translate(0.5,0.5)"><rect x="107" y="208" width="64" height="30" fill="none" stroke="none" transform="rotate(90,139,223)" pointer-events="all"/><path d="M 139.01 191 L 134.67 198.11 L 137.76 198.11 L 137.76 234.45 L 129.88 227.37 C 129.37 226.77 129.01 225.98 128.99 225.17 C 128.99 221.89 128.99 219.95 128.99 219.23 C 130.45 218.75 131.5 217.44 131.5 215.89 C 131.5 213.93 129.82 212.33 127.75 212.33 C 125.68 212.33 124 213.92 124 215.88 C 124 217.43 125.05 218.74 126.51 219.23 L 126.51 225.1 C 126.51 226.69 127.43 228.36 128.51 229.42 C 128.48 229.39 128.44 229.36 128.51 229.42 C 128.54 229.44 136.88 236.93 136.88 236.93 C 137.38 237.53 137.74 238.32 137.76 239.13 L 137.76 243.24 C 134.89 243.78 132.74 246.18 132.74 249.06 C 132.74 252.34 135.54 255 139 255 C 142.46 255 145.26 252.35 145.26 249.06 C 145.26 246.19 143.11 243.78 140.24 243.24 L 140.24 239.2 C 140.24 239.19 140.24 239.18 140.24 239.17 L 140.24 230.23 C 140.26 229.42 140.61 228.64 141.12 228.04 C 141.12 228.04 149.46 220.56 149.49 220.54 C 149.56 220.48 149.52 220.5 149.49 220.54 C 150.57 219.47 151.49 217.8 151.49 216.21 L 151.49 210.56 L 154 210.56 L 154 203.44 L 146.5 203.44 L 146.5 210.56 L 149.01 210.56 C 149.01 210.56 149 212.05 149 216.28 C 148.98 217.09 148.63 217.88 148.12 218.48 L 140.24 225.56 L 140.24 198.11 L 143.34 198.11 L 139.01 191 Z" fill="#000000" stroke="none" transform="rotate(90,139,223)" pointer-events="all" style="fill: light-dark(rgb(0, 0, 0), rgb(237, 237, 237));"/></g></g><g data-cell-id="KelcQbCNuYDzjiUfYtOG-28"><g transform="translate(0.5,0.5)"><rect x="210.5" y="164" width="30" height="30" fill="none" stroke="none" pointer-events="all"/><path d="M 230.39 193.96 L 224.56 193.96 C 224.56 186.21 218.26 179.92 210.5 179.92 L 210.5 179.92 L 210.5 174.1 C 221.48 174.1 230.39 182.99 230.39 193.96 Z M 234.5 193.96 C 234.5 180.72 223.76 169.99 210.5 169.99 L 210.5 164 C 227.07 164 240.5 177.42 240.5 193.96 L 234.5 193.96 Z M 210.5 189.91 C 210.5 188.45 211.28 187.1 212.56 186.37 C 213.83 185.64 215.39 185.64 216.67 186.37 C 217.94 187.1 218.72 188.45 218.72 189.91 C 218.72 191.37 217.94 192.72 216.67 193.45 C 215.39 194.18 213.83 194.18 212.56 193.45 C 211.28 192.72 210.5 191.37 210.5 189.91 Z" fill="#000000" stroke="none" pointer-events="all" style="fill: light-dark(rgb(0, 0, 0), rgb(237, 237, 237));"/></g></g><g data-cell-id="KelcQbCNuYDzjiUfYtOG-29"><g transform="translate(0.5,0.5)"><rect x="35" y="67.5" width="40" height="40" fill="none" stroke="none" pointer-events="all"/><path d="M 56.94 67.5 C 48.75 67.5 41.2 72.67 39.63 78.37 C 39.27 79.64 38.88 82.94 38.88 82.94 L 35.1 90.92 C 35.03 91.07 35 91.23 35 91.4 C 35 92.08 35.66 92.63 36.46 92.63 L 38.88 92.63 L 38.88 96.87 C 38.88 100.18 42.07 102.85 46 102.85 L 48.83 102.85 L 48.83 107.5 L 68.1 107.5 L 68.1 94.62 C 72.3 91.84 75 87.53 75 82.68 C 74.99 74.3 66.91 67.5 56.94 67.5 Z M 43.31 85.97 C 42.21 85.97 41.31 85.21 41.31 84.27 C 41.31 83.34 42.21 82.58 43.31 82.58 C 44.43 82.58 45.34 83.34 45.34 84.27 C 45.34 85.21 44.43 85.97 43.31 85.97 Z M 69.96 83.67 L 68.08 85.25 L 65.79 83.89 C 65.35 84.09 64.89 84.24 64.4 84.34 L 63.98 86.44 L 64.85 86.44 L 65.09 87.55 C 65.18 87.57 65.27 87.59 65.36 87.62 C 65.6 87.69 65.82 87.78 66.02 87.89 L 67.08 87.27 L 67.94 88 L 67.17 88.92 C 67.33 89.17 67.47 89.44 67.54 89.72 L 68.81 89.9 L 68.81 90.93 L 67.49 91.12 C 67.46 91.2 67.45 91.28 67.41 91.35 C 67.33 91.55 67.22 91.74 67.08 91.91 L 67.83 92.79 L 66.96 93.52 L 65.86 92.87 C 65.56 93.01 65.25 93.12 64.92 93.18 L 64.69 94.25 L 63.47 94.25 L 63.25 93.13 C 63.16 93.11 63.06 93.1 62.97 93.07 C 62.73 93 62.51 92.91 62.31 92.8 L 61.25 93.43 L 60.39 92.7 L 61.17 91.77 C 61.01 91.52 60.87 91.26 60.8 90.97 L 59.52 90.79 L 59.52 89.76 L 60.86 89.57 C 60.89 89.49 60.9 89.41 60.93 89.34 C 61.02 89.14 61.13 88.96 61.26 88.79 L 60.51 87.9 L 61.38 87.17 L 62.48 87.83 C 62.78 87.69 63.09 87.57 63.42 87.51 L 63.61 86.58 L 61.31 86.58 L 60.82 84.26 C 60.72 84.23 60.62 84.21 60.52 84.18 C 60.14 84.06 59.8 83.92 59.47 83.76 L 57.26 85.06 L 55.38 83.48 L 56.99 81.56 C 56.76 81.19 56.58 80.8 56.46 80.39 L 53.8 80.01 L 53.8 78.17 L 52.46 78.37 C 52.44 78.42 52.44 78.48 52.41 78.53 C 52.33 78.73 52.21 78.91 52.09 79.09 L 53.12 80.31 L 51.88 81.35 L 50.37 80.46 C 50.09 80.58 49.8 80.68 49.5 80.75 L 49.19 82.21 L 47.46 82.21 L 47.14 80.68 C 47.08 80.67 47.02 80.66 46.96 80.64 C 46.72 80.57 46.5 80.47 46.29 80.37 L 44.83 81.23 L 43.6 80.19 L 44.66 78.92 C 44.52 78.69 44.41 78.44 44.33 78.19 L 42.58 77.94 L 42.58 76.48 L 44.38 76.22 C 44.4 76.16 44.42 76.11 44.44 76.06 C 44.53 75.86 44.65 75.67 44.76 75.5 L 43.74 74.27 L 44.96 73.24 L 46.48 74.13 C 46.76 74.01 47.05 73.91 47.35 73.84 L 47.66 72.37 L 49.39 72.37 L 49.7 73.9 C 49.77 73.92 49.83 73.92 49.89 73.94 C 50.13 74.01 50.35 74.11 50.56 74.22 L 52.02 73.35 L 53.25 74.39 L 52.18 75.66 C 52.33 75.89 52.44 76.14 52.52 76.39 L 54.26 76.64 L 54.26 77.71 L 56.55 77.38 C 56.58 77.29 56.6 77.21 56.65 77.12 C 56.78 76.8 56.96 76.51 57.15 76.23 L 55.58 74.38 L 57.46 72.8 L 59.75 74.16 C 60.2 73.96 60.66 73.81 61.15 73.71 L 61.6 71.47 L 64.26 71.47 L 64.74 73.79 C 64.84 73.81 64.95 73.84 65.05 73.87 C 65.42 73.99 65.76 74.13 66.09 74.29 L 68.3 72.98 L 70.17 74.56 L 68.56 76.49 C 68.79 76.86 68.97 77.25 69.1 77.65 L 71.76 78.04 L 71.76 80.27 L 69 80.67 C 68.97 80.76 68.94 80.85 68.9 80.93 C 68.77 81.24 68.6 81.54 68.4 81.81 L 69.96 83.67 Z" fill="#000000" stroke="none" pointer-events="all" style="fill: light-dark(rgb(0, 0, 0), rgb(237, 237, 237));"/><path d="M 62.7 77.29 C 61.66 77.29 60.81 78 60.81 78.89 C 60.81 79.78 61.66 80.49 62.7 80.49 C 63.76 80.49 64.6 79.78 64.6 78.89 C 64.6 78.01 63.76 77.29 62.7 77.29 Z" fill="#000000" stroke="none" pointer-events="all" style="fill: light-dark(rgb(0, 0, 0), rgb(237, 237, 237));"/><path d="M 62.26 90.42 C 62.26 91.31 63.11 92.02 64.16 92.02 C 65.21 92.02 66.06 91.3 66.06 90.42 C 66.06 89.53 65.21 88.82 64.16 88.82 C 63.11 88.82 62.26 89.53 62.26 90.42 Z" fill="#000000" stroke="none" pointer-events="all" style="fill: light-dark(rgb(0, 0, 0), rgb(237, 237, 237));"/><path d="M 48.34 75.56 C 47.29 75.56 46.43 76.27 46.43 77.16 C 46.43 78.04 47.29 78.76 48.34 78.76 C 49.4 78.76 50.25 78.04 50.25 77.16 C 50.25 76.27 49.4 75.56 48.34 75.56 Z" fill="#000000" stroke="none" pointer-events="all" style="fill: light-dark(rgb(0, 0, 0), rgb(237, 237, 237));"/></g></g><g data-cell-id="KelcQbCNuYDzjiUfYtOG-30"><g transform="translate(0.5,0.5)"><path d="M 57.35 159.25 L 57.35 175.74 L 72.55 175.74 C 73.07 169.44 72.53 163.64 72.53 163.64 C 72.53 163.64 68.92 166.04 63.37 163.02 C 61.29 161.89 59.26 160.64 57.35 159.25 Z M 53.5 159.27 C 51.59 160.67 49.58 161.92 47.5 163.02 C 41.91 166.02 38.29 163.61 38.29 163.61 C 38.29 163.61 37.75 169.42 38.27 175.72 L 53.5 175.72 Z M 38.74 179.59 C 39.21 182.4 39.95 185.11 41.13 187.21 C 44.88 193.91 50.55 196.95 53.5 198.16 L 53.5 179.59 Z M 57.39 179.66 L 57.39 198.25 C 58.72 197.71 59.97 197.05 61.17 196.29 L 61.15 188.46 C 61.15 187.52 61.93 186.74 62.87 186.74 L 62.92 186.74 L 62.92 185.91 C 62.92 182.91 65.35 180.46 68.37 180.46 C 69.6 180.46 70.78 180.86 71.75 181.62 C 71.89 180.98 72.01 180.32 72.13 179.66 Z M 68.44 182.25 C 66.34 182.25 64.62 183.95 64.62 186.08 C 64.62 186.31 64.64 186.55 64.69 186.76 L 66.25 186.76 L 66.25 186 C 66.25 184.83 67.22 183.86 68.42 183.86 C 69.6 183.86 70.59 184.83 70.59 186 L 70.59 186.76 L 72.17 186.76 C 72.22 186.52 72.24 186.29 72.24 186.08 C 72.24 183.98 70.55 182.25 68.44 182.25 Z M 63.77 188.01 C 63.06 188.01 62.49 188.58 62.49 189.28 L 62.49 196.69 C 62.49 197.4 63.06 197.97 63.77 197.97 L 73.07 197.97 C 73.78 197.97 74.35 197.4 74.35 196.69 L 74.35 189.28 C 74.37 188.58 73.78 188.01 73.07 188.01 Z M 68.4 190.23 C 69.27 190.23 69.98 190.94 69.98 191.81 C 70.03 192.38 69.7 192.89 69.22 193.18 L 69.22 195.04 C 69.22 195.44 68.89 195.77 68.49 195.77 L 68.35 195.77 C 67.95 195.77 67.62 195.44 67.62 195.04 L 67.62 193.18 C 67.12 192.89 66.81 192.38 66.81 191.81 C 66.81 191.39 66.98 190.99 67.28 190.69 C 67.57 190.39 67.98 190.23 68.4 190.23 Z" fill="#000000" stroke="none" pointer-events="all" style="fill: light-dark(rgb(0, 0, 0), rgb(237, 237, 237));"/></g></g><g data-cell-id="KelcQbCNuYDzjiUfYtOG-35"><g transform="translate(0.5,0.5)"><path d="M 138.25 45.09 C 137.9 45.33 137.77 45.2 137.77 44.89 L 137.77 39.2 C 137.77 39.02 137.86 38.95 138.06 38.95 L 140.99 38.95 C 141.09 38.95 141.16 39 141.16 39.12 L 141.16 41.83 C 140.56 43.14 139.41 44.33 138.25 45.09 Z M 128.85 45.08 C 128.85 45.34 128.64 45.39 128.37 45.2 C 127.31 44.45 126.15 43.3 125.43 42.06 L 125.43 37.12 C 125.43 36.92 125.56 36.84 125.77 36.84 L 128.52 36.85 C 128.77 36.85 128.85 36.94 128.85 37.15 Z M 131.46 46.27 L 131.46 32.81 C 131.46 32.69 131.57 32.59 131.74 32.59 L 134.58 32.59 C 134.78 32.59 134.88 32.69 134.88 32.87 L 134.88 46.24 C 134.88 46.42 134.75 46.5 134.48 46.56 C 134.05 46.66 132.42 46.68 131.77 46.53 C 131.64 46.51 131.46 46.4 131.46 46.27 Z M 133.02 48.01 C 139.33 48.01 144.04 42.9 144.04 37.1 C 144.04 31.28 139.34 26.1 133.17 26.1 C 127.17 26.1 122.22 31.08 122.22 37.11 C 122.22 42.86 126.99 48.01 133.02 48.01 Z M 141.92 47.99 C 139.5 49.95 136.23 51.13 133.21 51.13 C 125.07 51.13 119.2 44.38 119.2 37.17 C 119.2 28.88 125.81 23 133.14 23 C 140.4 23 147.08 28.8 147.08 37.14 C 147.08 40.45 145.96 43.4 144 45.91 L 144.38 46.36 L 147.44 46.91 L 158.2 57.76 C 158.8 58.41 158.5 60.04 157.21 61.27 C 155.95 62.47 154.5 63 153.68 62.29 L 142.93 51.48 L 142.4 48.45 Z" fill="#000000" stroke="none" pointer-events="all" style="fill: light-dark(rgb(0, 0, 0), rgb(237, 237, 237));"/></g></g></g></g></g></svg>