<?xml version="1.0" encoding="UTF-8"?>
<!-- Do not edit this file with editors other than draw.io -->
<!DOCTYPE svg PUBLIC "-//W3C//DTD SVG 1.1//EN" "http://www.w3.org/Graphics/SVG/1.1/DTD/svg11.dtd">
<svg xmlns="http://www.w3.org/2000/svg" style="background: #ffffff; background-color: light-dark(#ffffff, var(--ge-dark-color, #121212)); color-scheme: light dark;" xmlns:xlink="http://www.w3.org/1999/xlink" version="1.1" width="270px" height="260px" viewBox="0 0 270 260" content="&lt;mxfile host=&quot;app.diagrams.net&quot; agent=&quot;Mozilla/5.0 (Windows NT 10.0; Win64; x64) AppleWebKit/537.36 (KHTML, like Gecko) Chrome/144.0.0.0 Safari/537.36&quot; version=&quot;29.3.8&quot; scale=&quot;1&quot; border=&quot;0&quot;&gt;&#10;  &lt;diagram name=&quot;Page-1&quot; id=&quot;AYwddVPeyI0otd7Wy2Ze&quot;&gt;&#10;    &lt;mxGraphModel dx=&quot;1426&quot; dy=&quot;777&quot; grid=&quot;1&quot; gridSize=&quot;10&quot; guides=&quot;1&quot; tooltips=&quot;1&quot; connect=&quot;1&quot; arrows=&quot;1&quot; fold=&quot;1&quot; page=&quot;1&quot; pageScale=&quot;1&quot; pageWidth=&quot;827&quot; pageHeight=&quot;1169&quot; math=&quot;0&quot; shadow=&quot;0&quot;&gt;&#10;      &lt;root&gt;&#10;        &lt;mxCell id=&quot;0&quot; /&gt;&#10;        &lt;mxCell id=&quot;1&quot; parent=&quot;0&quot; /&gt;&#10;        &lt;mxCell id=&quot;KelcQbCNuYDzjiUfYtOG-20&quot; parent=&quot;1&quot; style=&quot;shape=mxgraph.signs.science.nuclear_2;html=1;pointerEvents=1;fillColor=#009999;strokeColor=none;verticalLabelPosition=bottom;verticalAlign=top;align=center;textShadow=1;labelBorderColor=none;&quot; value=&quot;&quot; vertex=&quot;1&quot;&gt;&#10;          &lt;mxGeometry height=&quot;260&quot; width=&quot;270&quot; x=&quot;260&quot; y=&quot;390&quot; as=&quot;geometry&quot; /&gt;&#10;        &lt;/mxCell&gt;&#10;        &lt;mxCell id=&quot;KelcQbCNuYDzjiUfYtOG-21&quot; parent=&quot;1&quot; style=&quot;pointerEvents=1;shadow=1;dashed=0;html=1;strokeColor=#36393d;fillColor=#FFFFFF;aspect=fixed;labelPosition=center;verticalLabelPosition=bottom;verticalAlign=top;align=center;outlineConnect=0;shape=mxgraph.vvd.networking;textShadow=1;convertToSvg=1;&quot; value=&quot;&quot; vertex=&quot;1&quot;&gt;&#10;          &lt;mxGeometry height=&quot;78&quot; width=&quot;78&quot; x=&quot;356&quot; y=&quot;472&quot; as=&quot;geometry&quot; /&gt;&#10;        &lt;/mxCell&gt;&#10;        &lt;mxCell id=&quot;KelcQbCNuYDzjiUfYtOG-22&quot; parent=&quot;1&quot; style=&quot;text;html=1;whiteSpace=wrap;strokeColor=none;fillColor=none;align=center;verticalAlign=middle;rounded=0;fontSize=15;shadow=1;fontFamily=Verdana;textShadow=1;convertToSvg=1;glass=1;horizontal=1;&quot; value=&quot;&amp;lt;font&amp;gt;&amp;lt;b&amp;gt;ToESS&amp;lt;/b&amp;gt;&amp;lt;/font&amp;gt;&quot; vertex=&quot;1&quot;&gt;&#10;          &lt;mxGeometry height=&quot;20&quot; width=&quot;60&quot; x=&quot;365&quot; y=&quot;548&quot; as=&quot;geometry&quot; /&gt;&#10;        &lt;/mxCell&gt;&#10;        &lt;mxCell id=&quot;KelcQbCNuYDzjiUfYtOG-26&quot; parent=&quot;1&quot; style=&quot;shape=mxgraph.signs.science.microscope;html=1;pointerEvents=1;fillColor=#000000;strokeColor=none;verticalLabelPosition=bottom;verticalAlign=top;align=center;sketch=0;textShadow=1;&quot; value=&quot;&quot; vertex=&quot;1&quot;&gt;&#10;          &lt;mxGeometry height=&quot;41&quot; width=&quot;30&quot; x=&quot;465&quot; y=&quot;453&quot; as=&quot;geometry&quot; /&gt;&#10;        &lt;/mxCell&gt;&#10;        &lt;mxCell id=&quot;KelcQbCNuYDzjiUfYtOG-27&quot; parent=&quot;1&quot; style=&quot;shape=mxgraph.signs.tech.usb;html=1;pointerEvents=1;fillColor=#000000;strokeColor=none;verticalLabelPosition=bottom;verticalAlign=top;align=center;sketch=0;direction=south;textShadow=1;&quot; value=&quot;&quot; vertex=&quot;1&quot;&gt;&#10;          &lt;mxGeometry height=&quot;30&quot; width=&quot;64&quot; x=&quot;363&quot; y=&quot;594&quot; as=&quot;geometry&quot; /&gt;&#10;        &lt;/mxCell&gt;&#10;        &lt;mxCell id=&quot;KelcQbCNuYDzjiUfYtOG-28&quot; parent=&quot;1&quot; style=&quot;shape=mxgraph.signs.tech.rss;html=1;pointerEvents=1;fillColor=#000000;strokeColor=none;verticalLabelPosition=bottom;verticalAlign=top;align=center;sketch=0;textShadow=1;&quot; value=&quot;&quot; vertex=&quot;1&quot;&gt;&#10;          &lt;mxGeometry height=&quot;30&quot; width=&quot;30&quot; x=&quot;466.5&quot; y=&quot;550&quot; as=&quot;geometry&quot; /&gt;&#10;        &lt;/mxCell&gt;&#10;        &lt;mxCell id=&quot;KelcQbCNuYDzjiUfYtOG-29&quot; parent=&quot;1&quot; style=&quot;shape=mxgraph.signs.healthcare.mental_health;html=1;pointerEvents=1;fillColor=#000000;strokeColor=none;verticalLabelPosition=bottom;verticalAlign=top;align=center;sketch=0;textShadow=1;&quot; value=&quot;&quot; vertex=&quot;1&quot;&gt;&#10;          &lt;mxGeometry height=&quot;40&quot; width=&quot;40&quot; x=&quot;291&quot; y=&quot;453.5&quot; as=&quot;geometry&quot; /&gt;&#10;        &lt;/mxCell&gt;&#10;        &lt;mxCell id=&quot;KelcQbCNuYDzjiUfYtOG-30&quot; parent=&quot;1&quot; style=&quot;points=[];aspect=fixed;html=1;align=center;shadow=0;dashed=0;fillColor=#000000;strokeColor=none;shape=mxgraph.alibaba_cloud.hsm_hardware_security_module;textShadow=1;&quot; value=&quot;&quot; vertex=&quot;1&quot;&gt;&#10;          &lt;mxGeometry height=&quot;39&quot; width=&quot;36.62&quot; x=&quot;293.75&quot; y=&quot;545.25&quot; as=&quot;geometry&quot; /&gt;&#10;        &lt;/mxCell&gt;&#10;        &lt;mxCell id=&quot;KelcQbCNuYDzjiUfYtOG-35&quot; parent=&quot;1&quot; style=&quot;sketch=0;html=1;aspect=fixed;strokeColor=none;shadow=0;fillColor=#000000;verticalAlign=top;labelPosition=center;verticalLabelPosition=bottom;shape=mxgraph.gcp2.big_query&quot; value=&quot;&quot; vertex=&quot;1&quot;&gt;&#10;          &lt;mxGeometry height=&quot;40&quot; width=&quot;39.6&quot; x=&quot;375.2&quot; y=&quot;409&quot; as=&quot;geometry&quot; /&gt;&#10;        &lt;/mxCell&gt;&#10;      &lt;/root&gt;&#10;    &lt;/mxGraphModel&gt;&#10;  &lt;/diagram&gt;&#10;&lt;/mxfile&gt;&#10;"><defs/><rect fill="#ffffff" width="100%" height="100%" x="0" y="0" style="fill: light-dark(#ffffff, var(--ge-dark-color, #121212));"/><g><g data-cell-id="0"><g data-cell-id="1"><g data-cell-id="KelcQbCNuYDzjiUfYtOG-20"><g transform="translate(0.5,0.5)"><rect x="0" y="0" width="270" height="260" fill="none" stroke="none" pointer-events="all"/><path d="M 75.57 130 C 75.57 58.21 102.19 0 135 0 C 167.84 0 194.43 58.21 194.43 130 C 194.43 201.79 167.81 260 135 260 C 102.19 260 75.57 201.79 75.57 130 Z M 135 248.98 C 165.05 248.98 189.39 195.71 189.39 130 C 189.39 64.27 165.05 11.02 135 11.02 C 104.95 11.02 80.61 64.29 80.61 130 C 80.61 195.71 104.95 248.98 135 248.98 Z M 164.72 178.84 C 99.2 214.75 32.81 221.99 16.41 195 C 0 168.01 39.8 117.04 105.28 81.13 C 170.8 45.22 237.19 38.01 253.59 65 C 270 91.97 230.2 142.96 164.72 178.84 Z M 243.57 70.51 C 228.56 45.8 167.76 52.44 107.83 85.28 C 47.85 118.14 11.42 164.81 26.46 189.49 C 41.47 214.2 102.24 207.56 162.2 174.72 C 222.15 141.86 258.58 95.19 243.57 70.51 Z M 164.72 81.13 C 230.2 117.04 270 168.01 253.59 195 C 237.19 221.99 170.77 214.75 105.28 178.84 C 39.8 142.96 0 91.97 16.41 65 C 32.81 38.01 99.2 45.25 164.72 81.13 Z M 26.46 70.51 C 11.45 95.22 47.88 141.86 107.83 174.72 C 167.78 207.59 228.56 214.2 243.57 189.49 C 258.58 164.78 222.15 118.14 162.2 85.28 C 102.24 52.41 41.47 45.8 26.46 70.51 Z" fill="#009999" stroke="none" pointer-events="all" style="fill: light-dark(rgb(0, 153, 153), rgb(31, 162, 162));"/><ellipse cx="135" cy="130" rx="22.10286062081558" ry="21.168280871670703" fill="#009999" stroke="none" pointer-events="all" style="fill: light-dark(rgb(0, 153, 153), rgb(31, 162, 162));"/></g></g><g data-cell-id="KelcQbCNuYDzjiUfYtOG-21"><g transform="translate(0.5,0.5)" style="filter: drop-shadow(light-dark(rgba(0, 0, 0, 0.25), rgba(237, 237, 237, 0.25)) 2px 3px 2px);"><rect x="96" y="82" width="78" height="78" fill="none" stroke="none" pointer-events="all"/><path d="M 116.5 92.94 C 116.05 92.93 116.14 92.88 115.9 92.64 C 115.75 92.49 115.56 92.61 115.5 92.25 C 115.47 92.07 115.46 91.8 115.63 91.69 C 116.08 91.4 116.75 91.5 117.11 91.76 C 117.39 91.97 116.92 92.95 116.5 92.94 Z M 135 82 C 113.47 82 96 99.47 96 121 C 96 142.53 113.47 160 135 160 C 156.53 160 174 142.53 174 121 C 174 99.47 156.53 82 135 82 Z M 135 83.8 C 142.63 83.8 149.72 86.09 155.62 90.03 C 155.58 90.27 155.37 90.46 155.06 90.71 C 154.84 90.89 154.64 91.02 154.63 91.55 C 154.63 91.94 154.02 92.36 154.35 92.84 C 154.86 93.6 155.87 94.02 156.24 93.63 C 156.58 93.28 155.76 93.31 155.76 92.34 C 155.76 91.77 156.22 91.04 156.51 90.64 C 157.53 91.37 158.52 92.14 159.46 92.97 C 159.38 93.09 159.31 93.23 159.25 93.39 C 159.18 93.58 159.19 94.4 159.26 94.58 C 159.57 95.29 159.21 94.94 159 94.68 C 158.76 94.37 158.44 94.33 158.18 94.28 C 157.69 94.19 157.84 94.5 157.33 94.04 C 157 93.74 156.75 94.12 157.08 94.37 C 157.37 94.59 157.66 94.74 157.4 94.86 C 156.6 95.26 156.34 95.06 155.86 95 C 155.19 94.93 155.38 95.26 154.94 95.32 C 154.63 95.36 154.63 95.26 154.43 95.44 C 153.99 95.84 154.05 95.65 153.78 95.87 C 153.62 95.99 153.38 96.43 153.17 96.38 C 152.61 96.24 152.95 95.74 152.6 95.62 C 152.3 95.52 152.27 95.75 152.29 96 C 152.34 96.52 152.13 96.54 151.83 96.46 C 151.49 96.38 151.56 96.37 151.23 96.73 C 151.1 96.86 150.94 96.84 151.02 97.14 C 151.06 97.31 150.9 97.34 150.82 97.42 C 150.66 97.56 150.81 97.54 150.6 97.76 C 150.14 98.24 150.08 98.03 149.76 97.74 C 149.32 97.36 149.59 97.18 149.27 96.78 C 148.61 95.97 148.9 95.96 149.61 96.36 C 150.21 96.68 151.18 96.65 151.3 96.06 C 151.45 95.33 149.48 94.31 149.02 94.27 C 148.36 94.22 148.56 93.84 148.2 93.75 C 147.87 93.67 148.07 93.72 147.7 93.3 C 147.05 92.56 147.12 92.78 146.19 92.86 C 145.07 92.94 145.04 93.2 144.6 93.18 C 144.05 93.15 143.79 94.14 143.02 94.51 C 142.4 94.81 141.89 95.18 142.73 95.28 C 143.45 95.36 142.78 96.14 142.28 96.59 C 142.01 96.84 141.52 97.6 141.19 97.65 C 140.77 97.72 140.49 98.28 140.05 98.63 C 139.66 98.94 139.37 98.83 139.33 99.32 C 139.22 100.44 139.38 101 139.67 101.47 C 139.98 101.95 140.25 101.33 140.63 101.34 C 140.97 101.35 140.82 101.26 141.18 101.23 C 141.75 101.2 141.38 101.67 141.86 102.27 C 142.31 102.82 142.01 102.96 142.26 103.02 C 142.48 103.07 142.43 102.89 142.75 102.63 C 142.91 102.49 143.33 102.86 143.31 102.32 C 143.27 101.19 143.39 101.39 143.82 101.02 C 144.27 100.64 143.33 100.52 143.35 99.97 C 143.36 99.5 143.73 98.63 143.95 98.32 C 144.27 97.88 144.8 97.96 144.78 97.48 C 144.76 96.68 145.14 96.46 145.59 96.56 C 146.63 96.78 145.46 98.02 145.12 98.33 C 144.8 98.62 145.12 98.71 145.08 99.39 C 145.06 99.72 145.33 100.03 145.66 100.23 C 146.09 100.49 146.24 99.95 146.5 99.95 C 146.93 99.94 146.95 99.75 147.2 99.73 C 147.73 99.69 147.74 98.98 148.38 99.65 C 148.72 100 147.68 100.61 147.31 100.66 C 146.42 100.78 146.73 100.93 146.22 101.06 C 145.76 101.18 145.72 101.26 145.8 101.5 C 145.99 102.04 145.66 102.16 145.52 102.13 C 145.16 102.02 145.11 101.9 144.96 102.17 C 144.71 102.6 144.89 102.69 144.71 102.91 C 144.02 103.77 143 104.08 142.7 104.07 C 141.67 104.02 141.81 104.31 141.3 104.29 C 140.43 104.23 140.69 104.38 140.1 104.52 C 139.47 104.66 139.55 104.47 139.27 104.73 C 138.97 105.01 139.06 105.23 138.59 105.65 C 138.22 105.99 138.19 106.06 138.24 105.67 C 138.27 105.4 138.18 105.41 137.95 105.16 C 137.75 104.95 137.71 105.22 137.69 104.83 C 137.66 104.51 137.51 104.53 137.21 104.09 C 136.78 103.45 136.83 103.43 136.82 103.25 C 136.77 102.77 137.07 102.91 136.91 102.57 C 136.8 102.34 136.57 102.63 136.48 101.99 C 136.45 101.75 136 101.9 135.73 101.99 C 135.4 102.09 135.2 102.43 135.13 102.85 C 135.06 103.32 135.61 103.73 135.78 104.01 C 135.94 104.26 136.13 104.02 136.47 104.35 C 136.71 104.58 136.71 104.69 136.5 104.82 C 135.92 105.2 136.17 105.13 135.92 105.4 C 135.65 105.67 135.82 105.78 135.67 106.18 C 135.46 106.73 135.84 106.97 136.4 106.71 C 136.74 106.55 136.85 106.44 137.09 106.48 C 137.51 106.53 137.43 106.34 137.61 106.3 C 138.22 106.17 137.39 106.7 137.1 106.86 C 136.48 107.21 136.51 107.06 136.28 107.06 C 135.84 107.06 135.72 107.42 136.04 107.6 C 136.71 107.99 136.51 108 136.76 108.4 C 137.02 108.84 137.44 109.1 136.98 109.8 C 136.69 110.23 136.48 109.89 135.7 109.84 C 134.65 109.78 134.72 109.93 134.38 109.99 C 134.15 110.03 134.12 110.04 134.22 110.24 C 134.4 110.63 134.34 111.34 134.26 111.65 C 134.1 112.29 134.06 112.61 134.25 113.01 C 134.48 113.48 134.7 112.81 135.24 113.52 C 135.45 113.8 135.51 113.67 135.7 113.52 C 136.05 113.25 136.23 113.49 136.52 113.31 C 136.77 113.15 136.58 113.05 136.94 112.9 C 137.23 112.77 137.47 112.51 137.46 112.16 C 137.43 111.47 137.56 111.61 137.61 111.58 C 137.84 111.43 137.86 111.21 138.13 111.01 C 138.49 110.74 138.49 110.86 138.6 110.43 C 138.71 109.98 138.96 109.84 139.27 109.99 C 139.5 110.09 139.56 110.34 140.09 109.85 C 140.74 109.24 140.91 109.54 141.16 110.11 C 141.55 110.97 142.45 111.4 142.75 111.66 C 142.87 111.77 143.07 112.01 143.05 112.26 C 143.03 112.42 142.91 112.8 142.69 112.77 C 142.23 112.72 142.52 113.09 142.61 113.21 C 142.83 113.52 142.87 112.83 143.1 112.82 C 143.37 112.8 143.41 112.23 143.36 112.09 C 143.18 111.6 143.92 112.01 143.86 111.7 C 143.8 111.36 142.63 110.89 142.44 110.43 C 142.27 110.01 141.71 109.88 141.75 109.28 C 141.79 108.74 142.57 109.33 142.69 109.5 C 143.14 110.13 143.4 110.16 143.57 110.25 C 144.42 110.71 144.37 110.99 144.36 111.19 C 144.27 112.26 144.81 111.71 144.84 112.75 C 144.86 113.66 145.84 113.32 146 113.19 C 146.7 112.65 145.35 112.29 145.75 111.79 C 146.4 110.97 146.78 111.52 146.97 111.94 C 147.14 112.33 146.95 112.81 147.32 113.14 C 147.65 113.43 147.54 113.55 148.08 113.7 C 148.59 113.85 148.42 113.25 148.9 113.67 C 149.05 113.8 149.36 113.93 149.64 113.71 C 150.07 113.35 150.3 114.01 150.3 114.65 C 150.3 114.67 150.1 115.08 150.1 115.57 C 150.1 115.94 149.52 116.36 149.04 116.27 C 148.15 116.1 147.72 116.59 147.17 116.27 C 146.65 115.96 146.36 116.05 145.98 115.79 C 145.16 115.21 144.69 115.46 144.59 115.75 C 144.44 116.17 144.82 116.65 143.71 116.47 C 143 116.36 143.23 115.85 142.17 115.55 C 141.41 115.33 141.02 114.87 141.08 114.72 C 141.38 114.06 141.14 113.99 141.27 113.55 C 141.45 112.92 140.49 113.31 138.65 113.34 C 137.75 113.36 137.79 113.56 137.61 113.63 C 136.88 113.89 136.84 114.1 136.6 114.13 C 136.22 114.18 136.18 113.9 135.99 114.08 C 135.88 114.18 135.82 114.14 135.64 114 C 135.37 113.77 135.17 114.16 135.13 114.35 C 134.95 115.21 134.56 114.7 134.08 115.48 C 133.5 116.4 134.53 116.77 132.98 117.9 C 132.06 118.59 131.86 119.62 131.58 119.86 C 130.86 120.45 131.17 121.27 131.43 122.22 C 131.84 123.78 130.93 123.27 131.29 124.69 C 131.51 125.61 132.07 125.67 132.39 126.61 C 132.78 127.75 133.33 127.79 133.77 128.31 C 134.32 128.96 134.52 128.92 135.09 128.7 C 135.95 128.37 135.92 128.91 136.22 128.76 C 137.4 128.18 137.3 128.42 137.72 128.23 C 138.77 127.75 138.97 127.81 139.41 128.68 C 139.7 129.23 140.16 128.62 140.36 128.75 C 141.05 129.23 140.84 129.57 140.86 129.92 C 140.93 131.09 140.65 130.71 140.63 131.26 C 140.59 132.2 140.91 131.54 141.75 133.54 C 142.26 134.73 141.95 135 142.23 135.81 C 142.59 136.84 141.84 136.9 141.88 137.49 C 141.93 138.16 141.52 137.83 141.59 138.91 C 141.66 139.77 141.81 139.43 141.98 140.25 C 142.2 141.26 142.57 140.43 142.57 142.83 C 142.57 144.07 143 143.86 143.3 144.82 C 143.59 145.74 143.8 145.89 143.59 146.33 C 143.42 146.67 143.37 146.89 144 147.26 C 144.27 147.42 144.8 146.99 145.2 146.93 C 145.68 146.86 145.96 147.04 146.56 146.75 C 146.88 146.6 148.24 144.68 148.48 144.15 C 148.9 143.24 148.21 143.01 149.04 142.62 C 149.5 142.4 149.86 142.21 149.53 141.23 C 149.28 140.45 149.41 140.27 149.62 139.93 C 150.4 138.68 150.36 139.7 151.28 138.51 C 151.59 138.11 151.64 136.46 151.59 135.91 C 151.53 135.3 151.07 135.4 151.31 134.72 C 151.47 134.24 151.27 133.62 151.27 133.42 C 151.25 132.79 151.82 132.28 152.13 131.86 C 152.5 131.35 152.21 131.52 152.61 130.98 C 153.71 129.5 153.11 130.77 154.16 129.42 C 154.77 128.64 154.73 128.44 155.04 127.51 C 155.26 126.84 155.45 127.18 155.63 126.17 C 155.74 125.52 155.43 125.66 155.17 125.74 C 154.75 125.87 154.74 125.61 154.41 125.89 C 153.99 126.25 153.89 126.01 153.59 126.01 C 152.95 126.01 153.14 125.92 153.03 125.78 C 152.72 125.35 152.85 125.35 152.92 125.24 C 153.05 125.03 153.34 125.21 153.71 124.71 C 153.87 124.49 154.09 124.39 154.61 124.28 C 156.08 123.98 156.04 123.58 156.41 123.18 C 156.96 122.57 157.13 122.72 157.35 122.54 C 157.57 122.36 157.67 122.02 157.74 121.96 C 158.45 121.3 158.75 120.89 158.74 120.52 C 158.73 119.91 157.39 119.25 157 119.42 C 156.26 119.72 156.11 119.56 155.72 119.34 C 155.05 118.97 155.51 118.78 155.23 118.46 C 154.84 118.03 154.94 117.98 154.79 117.7 C 154.45 117 154.65 116.73 155.09 116.73 C 155.54 116.74 155.65 117.63 155.89 117.89 C 156.37 118.4 156.82 118.58 157.26 118.41 C 157.83 118.18 157.93 118.72 158.48 119 C 159.04 119.28 159.11 118.84 159.37 119.06 C 159.53 119.21 159.2 119.33 159.58 119.76 C 160.26 120.5 160.02 120.57 160.1 120.96 C 160.23 121.55 160.45 121.47 160.83 121.32 C 161.16 121.17 161.07 121.6 161.06 121.94 C 161.04 122.36 161.2 122.24 161.16 122.61 C 161.04 123.66 161.28 123.53 161.35 124.23 C 161.48 125.7 161.99 127.13 162.14 127.15 C 162.53 127.23 162.23 126.99 162.6 126.83 C 162.93 126.68 162.93 126.67 162.95 126.07 C 162.96 125.81 163.15 125.69 163.15 125.01 C 163.15 123.84 163.61 123.94 164.07 123.41 C 165.5 121.76 165.37 122.33 165.53 122.11 C 165.69 121.9 165.61 121.82 165.76 121.6 C 166.03 121.19 166.19 121.7 166.61 121.26 C 167.15 120.7 167.18 121.24 167.25 121.7 C 167.34 122.21 167.42 122.01 167.61 122.3 C 167.8 122.6 167.72 122.75 167.84 122.91 C 168.22 123.44 168.44 122.76 168.84 124.33 C 169.48 126.87 168.78 126.69 168.97 127.39 C 169.16 128.07 169.29 127.71 169.31 128.8 C 169.33 129.54 169.45 130.17 170.07 130.35 C 170.45 130.47 170.18 130.03 170.19 129.55 C 170.19 128.73 170.05 128.75 169.68 128.11 C 168.89 126.71 169.42 126.7 169.46 126.13 C 169.52 125.04 170.05 125.53 170.36 126.3 C 170.75 127.27 171.27 126.98 171.78 126.61 C 171.41 129.07 170.8 131.43 169.98 133.7 C 169.69 133.63 169.37 133.54 169.35 133.27 C 169.33 132.97 169.54 132.96 169.52 132.54 C 169.49 131.96 169.1 132.21 169.12 131.76 C 169.14 131.18 168.57 131.36 168.25 130.31 C 168.12 129.89 167.65 129.4 167.4 129.59 C 167.09 129.83 167.74 130.11 167.73 131.02 C 167.73 131.5 168.19 131.46 168.35 132.19 C 168.47 132.77 168.65 133.01 168.79 133.35 C 169.08 134.07 169.46 134.17 169.73 134.36 C 168.33 138.02 166.35 141.41 163.93 144.4 C 163.7 144.25 163.44 144.05 163.32 143.84 C 163.18 143.57 163.4 143.27 163.17 143.01 C 163 142.83 162.77 143.03 162.78 143.28 C 162.79 143.74 162.52 143.91 162.53 144.1 C 162.55 144.79 162.3 144.63 162.2 144.95 C 161.99 145.66 161.74 145.66 161.51 145.36 C 161.05 144.76 161.01 144.9 160.65 144.8 C 160.27 144.68 160.57 143.88 160.99 143.57 C 161.31 143.33 161.2 143.17 160.96 143.15 C 160.15 143.11 159.77 142.9 159.3 143.09 C 158.8 143.3 158.94 143.51 158.58 144.01 C 158.21 144.52 158.05 144.32 157.88 144.22 C 157.67 144.1 157.41 144.08 157.18 144.24 C 156.48 144.73 156.32 145.16 155.97 145.36 C 155.64 145.56 155.46 145.82 155.47 146.06 C 155.5 146.59 154.84 146.83 154.69 146.85 C 154.41 146.88 154.49 146.75 153.93 146.96 C 153.43 147.15 152.76 147.78 152.35 148.2 C 152.25 148.3 152.19 148.27 152.19 148.57 C 152.17 149.12 152.01 149.1 151.97 149.71 C 151.92 150.51 152.07 151.11 152.13 151.13 C 152.27 151.19 152.11 151.31 152.05 151.55 C 151.92 152.17 152.49 151.99 151.84 153.13 C 151.67 153.42 151.85 153.76 152.18 154.01 C 147.04 156.69 141.2 158.2 135 158.2 C 128.02 158.2 121.5 156.29 115.92 152.95 C 116.18 152.57 116.23 152.05 115.63 151.92 C 115.37 151.9 115.35 151.72 114.89 151.48 C 114.5 151.17 113.89 150.59 113.27 150.2 C 113.03 150.18 112.85 150.37 112.54 150.08 C 112.35 149.91 112.24 149.79 112.28 149.51 C 112.29 149.37 111.93 149.21 111.74 149.16 C 111.69 148.94 111.88 148.74 111.71 148.53 C 111.31 148.15 111.7 147.77 111.5 147.68 C 111.37 147.61 110.98 148 111.05 148.28 C 111.14 148.52 111.49 148.79 111.22 148.95 C 111.08 149.05 110.92 149.14 110.75 149.22 C 102.82 142.4 97.8 132.29 97.8 121 C 97.8 117.63 98.25 114.37 99.08 111.27 C 99.45 111.91 99.08 112.25 99.49 112.46 C 99.83 112.61 99.93 113.43 99.91 113.99 C 99.91 114.43 100.41 114.3 100.43 114.62 C 100.42 115.03 100.59 114.94 100.73 115.41 C 100.84 115.67 101.05 115.33 101.14 115.59 C 101.47 116.47 101.45 117.82 102.01 118.86 C 102.21 119.2 102.14 119.58 101.97 119.98 C 101.68 120.75 102.37 121.3 102.99 122.11 C 103.26 122.36 103.35 122.26 103.59 122.54 C 103.87 122.84 104.1 123.1 104.44 123.14 C 105.23 123.24 105.25 123.29 105.35 123.67 C 105.58 124.38 105.9 124.71 106.26 124.87 C 106.87 125.13 106.92 125.73 106.91 126.11 C 106.91 126.53 107.01 126.93 107.16 127.17 C 107.5 127.73 107.55 127.65 107.78 128.04 C 107.96 128.28 108.12 128.57 108.34 128.32 C 108.68 127.87 108.8 128.21 109.03 128.57 C 109.43 129.13 109.86 128.93 109.67 129.55 C 109.4 130.33 109.39 130.76 109.36 131.2 C 109.36 132.15 109.93 132.4 109.84 132.82 C 109.7 133.49 110.12 133.72 110.43 133.96 C 111.18 134.56 111.8 134.54 112.03 135.14 C 112.36 136.02 112.89 136.07 113.11 136.51 C 113.51 137.23 113.62 137.22 114.66 137.45 C 115.55 137.64 116.05 137.89 116.23 138.46 C 116.42 139.22 116.67 139.57 116.93 140.33 C 117.14 140.93 117.16 141.38 117.45 142.07 C 117.59 142.41 117.73 142.65 117.83 143.27 C 118.03 144.49 118.61 143.98 118.61 145.16 C 118.61 145.7 118.75 146.3 118.96 146.92 C 119.12 147.32 119.04 147.6 119.38 147.84 C 119.65 148 119.57 148.15 119.64 148.42 C 119.7 148.68 119.9 148.76 119.92 149.2 C 119.92 149.88 120.31 150.57 120.52 150.92 C 120.82 151.33 120.49 151.59 120.98 151.77 C 121.32 151.92 121.29 152.16 121.2 152.41 C 121.14 152.64 121.22 152.85 121.37 153.06 C 121.89 153.9 122.29 154.67 122.9 154.96 C 124.01 155.51 124.77 155.78 125.62 155.72 L 125.62 155.72 C 125.83 155.71 126.11 155.5 125.85 155.19 C 125.65 154.95 125.29 155.03 124.71 154.58 C 124.32 154.28 124.24 153.74 124.18 153.48 C 123.9 152.28 123.78 152.41 123.89 152.09 C 124.07 151.52 123.93 151.34 123.45 151.09 C 122.86 150.77 123.2 150.64 123.25 150.06 C 123.32 149.2 123.56 148.97 123.04 148.62 C 122.67 148.37 122.54 148.27 123.01 148.06 C 123.3 147.94 123.29 147.86 123.18 147.59 C 123 147.12 123.29 146.68 123.71 146.52 C 124.46 146.26 124.39 145.36 123.83 144.83 C 123.2 144.22 123.7 144.45 124.17 144.32 C 124.9 144.13 124.41 143.88 124.79 143.17 C 125.15 142.5 125.09 142.43 125.08 141.97 C 125.06 141.29 125.18 141.17 125.11 140.62 C 125.07 140.29 124.48 139.86 124.85 139.16 C 125.15 138.59 125.2 138.87 125.41 138.68 C 125.95 138.19 125.67 138.2 126.05 137.91 C 126.74 137.39 126.39 137.31 126.53 136.06 C 126.71 134.39 125.9 133.28 125.96 133.01 C 126.05 132.55 126.2 132.41 126.35 131.93 C 126.59 131.14 126.29 131.7 126.6 130.75 C 126.77 130.24 126.37 128.95 125.62 128.74 C 124.71 128.49 124.9 128.2 124.22 128.14 C 123.3 128.06 123.08 128.55 121.99 128.05 C 120.94 127.57 120.61 128.03 120.22 127.66 C 119.71 127.18 119.79 126.21 118.37 125.52 C 117.43 125.06 117.17 126.1 116.35 125.45 C 115.79 125.01 115.66 125.25 115.23 124.97 C 114.68 124.63 114.6 123.57 114.09 124.01 C 113.69 124.35 113.93 124.1 113.36 123.84 C 112.44 123.41 112.19 124.17 112.64 124.34 C 113.24 124.57 113.51 124.43 113.37 124.61 C 112.91 125.22 113.19 124.66 112.68 124.81 C 111.81 125.06 112.33 124.83 111.43 124.53 C 111.19 124.45 110.88 124.34 110.64 124.66 C 110.19 125.29 110.01 125.23 109.52 125.75 C 109.38 125.9 109.44 127.25 109.44 127.83 C 109.45 128.5 109.3 128.15 109.08 127.81 C 108.61 127.12 108.5 127.97 108.06 127.41 C 107.41 126.57 107.77 125.66 107.94 125.47 C 108.41 124.93 108.06 123.94 107.65 123.9 C 107.38 123.86 106.61 123.67 107.04 123.11 C 107.66 122.3 107.18 122.49 107.45 122.05 C 107.85 121.4 107.93 121.29 107.5 121.16 C 106.98 121.01 106.9 121.26 106.6 121.65 C 106.02 122.39 106.24 121.86 105.6 121.98 C 105.37 122.02 105.17 122.51 104.79 121.28 C 104.19 119.32 105.3 118.51 105.25 118.22 C 105.14 117.61 105.53 117.35 105.82 117.26 C 106.88 116.93 107.13 116.6 107.46 117.23 C 107.91 118.1 108.44 117.2 108.85 117.24 C 110.56 117.39 109.71 120.42 110.37 120.05 C 111.1 119.64 110.1 117.37 111.59 116.79 C 112.46 116.45 113.48 116.11 113.35 115.37 C 113.2 114.57 113.6 114.69 113.76 114.53 C 114.13 114.19 113.36 114.25 114.44 113.65 C 116.19 112.66 116.53 112.29 117.29 112.27 C 118 112.25 117.52 112.63 119 112.34 C 120.96 111.95 120.48 110.96 119.84 111.22 C 118.75 111.68 119.1 110.63 119.2 110.17 C 119.42 109.21 118.87 109.8 118.47 109.76 C 117.99 109.7 117.95 110.3 117.59 109.9 C 117.4 109.68 117.55 109.5 118.14 109.31 C 118.52 109.19 118.51 108.72 119.68 109.1 C 120.42 109.35 121.04 109.37 121.45 109.12 C 122.04 108.76 122.48 108.82 122.66 108.44 C 122.9 107.93 121.6 107 121.54 106.52 C 121.47 105.94 121.28 106.06 121.46 105.66 C 121.8 104.91 121.51 104.88 121.49 104.35 C 121.48 103.9 121.58 103.57 121.2 103.81 C 120.4 104.35 120.27 104.64 119.88 103.68 C 119.75 103.35 120.04 103.01 120.04 102.77 C 120.06 102.29 119.86 102.35 119.7 102.03 C 119.53 101.7 119.8 101.52 119.26 101.55 C 118.71 101.58 118.88 101.45 118.48 101.46 C 117.89 101.47 117.99 102.63 117.67 102.83 C 117.15 103.15 117.14 103.17 117.18 103.52 C 117.23 104.04 117.2 105 116.56 105.28 C 115.59 105.7 115.77 107.09 114.97 107.34 C 114.48 107.48 114.48 106.36 114.65 105.78 C 114.77 105.38 114.77 105.22 114.4 105.08 C 113.44 104.7 113.75 104.23 113.38 103.68 C 113 103.13 112.45 103.16 112.53 102.79 C 112.69 102.05 112.51 102.34 112.37 102.07 C 111.86 101.12 113.13 100.64 113.47 100.42 C 114.16 99.97 114.31 99.48 115.19 99.52 C 115.79 99.55 115.77 99.39 115.93 99.44 C 116.37 99.58 115.75 100.24 116.37 100.24 C 116.81 100.24 117.17 99.85 116.95 99.39 C 116.66 98.79 117.53 98.85 118.07 98.53 C 118.88 98.04 118.11 97 118.71 96.52 C 119.67 95.72 120.46 95.94 120.69 96.84 C 120.93 97.83 121.48 97.94 121.02 98.44 C 120.4 99.13 120.26 99.73 119.9 99.72 C 119.04 99.7 118.19 100.17 118.56 100.59 C 118.92 100.99 119.06 100.31 120.12 101.21 C 120.79 101.78 119.95 101.64 121.17 102.1 C 121.9 102.37 121.68 101.89 121.28 101.59 C 120.82 101.24 121.26 100.67 121.87 101.24 C 122.3 101.64 122.61 101.04 122.22 100.56 C 121.8 100.06 122.3 99.46 122.51 99.84 C 122.71 100.2 122.83 99.89 122.9 100.26 C 123.02 100.96 123.23 100.58 123.73 100.05 C 123.97 99.75 124.1 99.15 123.72 98.75 C 123.43 98.45 123.4 98.21 123.32 98.13 C 123.26 98.05 123.09 97.98 123 97.89 C 122.87 97.73 122.85 97.57 122.98 97.32 C 123.1 97.09 123.2 96.77 122.9 96.46 C 122.54 96.15 122.18 95.9 122.42 95.29 C 122.49 95.05 122.46 94.89 122.22 94.89 C 121.92 94.87 121.52 94.69 121.56 94.45 C 121.62 94.07 121.63 93.92 121.3 93.86 C 120.8 93.82 120.38 93.84 119.55 93.58 C 118.59 93.35 118.63 93.65 118.53 93.64 C 118.29 93.64 118.45 93.31 118.49 92.99 C 118.53 92.81 118.32 92.87 118.48 92.75 C 118.6 92.64 118.97 92.28 118.75 92.14 C 118.43 92.01 118.38 92.46 118.17 92.81 C 118.05 93.02 117.83 93.52 117.92 93.58 C 118.01 93.63 118.1 93.49 118.17 93.56 C 118.27 93.67 118.14 93.75 118.26 93.82 C 118.52 94.01 118.19 94.14 118.13 94.06 C 118.09 93.88 117.91 94.16 117.79 94.24 C 117.53 94.45 117.53 94.58 117.59 94.75 C 117.77 95.18 117.65 95.24 117.69 95.49 C 117.75 96.03 117.55 96.08 117.85 96.34 C 118.19 96.62 117.97 96.73 117.85 96.88 C 117.59 97.18 117.5 97.07 117.42 97.2 C 117.3 97.4 117.39 97.44 117.22 97.64 C 116.95 97.92 116.73 98.02 116.67 97.78 C 116.63 97.55 116.52 97.46 116.32 97.45 C 116.03 97.44 116.01 97.25 116.09 96.85 C 116.11 96.72 115.99 96.67 116.01 96.62 C 116.07 96.54 116.1 96.34 116.07 96.28 C 115.87 95.97 115.94 95.76 116.26 95.49 C 116.84 95.02 116.06 94.89 116.05 94.4 C 116.06 94.07 116.46 93.83 117.15 93.8 C 117.36 93.79 117.83 93.45 117.88 93.12 C 117.9 93.03 117.94 92.87 117.89 92.82 C 117.71 92.72 117.61 92.82 117.51 92.88 C 117.37 92.96 117.31 93.07 117.37 93.26 C 117.44 93.58 117.16 93.72 116.91 93.72 C 116.45 93.73 116.49 93.55 116.16 93.44 C 115.73 93.33 115.71 93.52 115.55 93.52 C 115.1 93.48 115.07 93.72 114.74 93.95 C 114.52 94.16 114.57 94.46 114.72 94.51 C 114.9 94.57 115.01 94.66 115.03 94.82 C 115.05 95.08 115.18 95.18 115.38 95.17 C 115.83 95.17 115.86 95.39 115.73 95.66 C 115.62 95.86 115.64 95.98 115.73 96.15 C 116.1 96.54 115.84 96.81 115.45 97.08 C 115.08 97.34 114.71 97.46 114.4 97.35 C 113.75 97.14 113.56 97.06 112.93 97.12 C 112.46 97.13 112.33 97.02 112.24 96.67 C 112.18 96.43 111.92 96.55 111.81 96.61 C 110.72 97.2 110.78 96.71 110.05 96.71 C 109.64 96.72 109.31 96.71 109.42 96.47 C 109.68 96.14 109.41 96.08 109.02 96.01 L 109.48 95.39 C 110.35 96.21 110.79 96.3 111.64 95.97 C 111.94 95.87 112.39 95.76 112.54 96.07 C 112.78 96.45 112.9 96.41 113.57 96.2 C 114.14 96.03 114.31 95.91 113.91 95.42 C 113.24 94.66 113.57 94.52 113.6 93.94 C 113.73 93.4 112.58 93.39 112.01 93.4 C 111.91 93.38 111.97 93.28 111.81 93.24 L 112.91 92.46 C 113.61 92.47 114.28 92.56 114.59 92.22 C 114.83 91.95 114.67 91.76 114.15 91.53 L 115.42 90.61 C 115.69 90.39 115.75 90.62 116.01 90.61 C 116.27 90.59 116.46 90.63 116.51 90.86 C 116.54 91.1 116.68 91.25 116.94 91.23 C 117.36 91.21 117.47 91.05 117.33 90.66 C 117.09 90.21 117.21 90.01 116.52 89.97 L 119.2 88.52 C 119.25 88.85 119.22 89.09 119.16 89.31 C 119.11 89.6 119.04 89.99 118.8 90.02 C 118.49 90.07 118.17 89.66 117.97 90.01 C 117.73 90.39 118.32 90.74 118.18 90.97 C 117.76 91.75 118.78 91.44 118.86 91.71 C 118.94 91.91 118.88 92.07 119.38 91.93 C 119.84 91.85 120.34 91.93 120.84 91.9 C 121.39 91.88 121.34 91.29 122.28 90.58 C 122.44 90.45 122.68 89.87 123.23 89.51 C 123.68 89.38 123.92 89.02 124.2 88.65 C 124.48 88.25 124.82 88.13 125.24 87.95 C 125.75 87.75 126.01 87.59 126.17 87.37 C 126.3 87.18 126.85 86.88 127.22 86.84 C 127.51 86.79 128.54 86.28 128.41 85.86 C 128.27 85.31 125.88 85.49 125.44 85.66 C 125.07 85.78 124.77 85.39 124.51 85.61 C 124.35 85.76 124.08 85.68 123.62 85.84 C 122.93 86.11 122.44 86.15 122.02 86.13 C 126.06 84.62 130.43 83.8 135 83.8 Z M 134.86 86.35 C 134.33 86.34 133.83 86.44 133.47 86.71 C 132.59 87.37 133.06 86.89 132.55 86.95 C 131.88 87.02 132.02 87.32 131.71 87.51 C 131.45 87.67 131.73 88.11 131.42 88.13 C 131.14 88.15 131.42 87.6 131 87.61 C 129.82 87.63 129.57 87.91 129.11 87.99 C 127.74 88.21 127.87 88.64 127.05 88.97 C 126.79 89.08 126.43 89.17 126.87 89.37 C 127.17 89.5 127.17 89.72 126.81 89.89 C 126.21 90.16 126.27 89.8 125.35 90.45 C 125.05 90.66 125.53 90.9 125.3 91.11 C 124.99 91.39 125.08 91.45 125.25 91.65 C 125.61 92.06 125.25 91.51 126.91 91.58 C 127.91 91.62 127.77 91.8 128.04 92.02 C 128.45 92.36 128.46 93 128.39 93.29 C 128.29 93.67 128.26 93.86 128.6 93.89 C 129.58 93.99 129.45 94.25 129.45 94.84 C 129.45 95.6 128.58 95.48 128.52 96.11 C 128.46 96.79 128.14 96.95 128.57 97.57 C 129.07 98.29 128.47 98.11 129.12 98.75 C 129.53 99.17 129.3 99.4 129.69 99.33 C 130.11 99.25 130.27 99.59 130.49 99.65 C 130.86 99.74 130.82 99.21 131.06 98.78 C 131.32 98.32 131.31 98.41 131.47 98.12 C 131.7 97.72 131.61 97.28 131.9 96.92 C 132.13 96.64 132.47 96.93 132.96 96.62 C 133.71 96.16 134.28 95.11 135.44 95.18 C 135.94 95.21 136.33 94.58 136.78 94.19 C 137.06 93.94 136.54 93.67 136.92 93.32 C 137.25 93.02 137.2 92.88 137.22 92.47 C 137.25 91.91 137.34 91.56 137.53 91.21 C 137.62 91.05 137.31 90.96 137.28 90.71 C 137.25 90.5 137.53 90.18 137.52 89.94 C 137.5 89.54 137.86 89.45 138.08 89.04 C 138.46 88.71 138.61 88.54 138.67 88 C 138.72 87.42 138.21 87.85 137.83 87.86 C 136.53 87.9 137.74 87.51 137.42 87.02 C 137.29 86.83 136.02 86.35 134.86 86.35 Z M 148.54 89.07 C 148.25 89.07 147.92 89.11 147.54 89.22 C 147.4 89.26 147.16 89.66 147.06 89.67 C 146.89 89.7 146.95 89.42 146.42 89.67 C 146.12 89.81 145.6 89.42 145.41 90.08 C 145.22 90.79 145.54 90.57 145.73 91.03 C 145.95 91.55 145.75 91.62 145.96 91.9 C 146.17 92.19 146.21 91.97 146.64 92.31 C 147.1 92.68 147.63 91.88 147.63 91.55 C 147.62 91.05 148.27 91.28 148.24 91.68 C 148.23 91.91 148.45 91.92 148.71 91.93 C 148.99 91.94 149.48 91.7 149.01 91.39 C 148.22 90.87 147.66 90.83 147.76 90.27 C 147.79 90.11 148.31 90.18 148.53 90.3 C 149.27 90.71 149.6 90.48 149.8 90.24 C 150.08 89.93 150.3 89.71 149.85 89.46 C 149.58 89.31 149.16 89.09 148.54 89.07 Z M 136.52 96.94 C 136.46 96.95 136.41 96.96 136.35 96.98 C 135.98 97.1 135.52 97.15 135.27 97.11 C 135.06 97.07 134.94 97.5 134.61 97.5 C 134.29 97.51 134.66 97.03 134.12 97.12 C 133.88 97.16 133.6 97.51 133.63 97.76 C 133.78 98.7 134.18 98.54 134.67 98.78 C 135.41 99.14 135.6 99.01 135.93 98.66 C 136.23 98.35 137.56 98.02 137.09 97.42 C 137.03 97.34 136.88 96.93 136.52 96.94 Z M 134.96 104.08 C 134.59 104.09 134.89 104.31 134.55 104.41 C 134.29 104.48 134.52 104.69 134.45 104.9 C 134.35 105.21 134.09 105.28 134.12 105.7 C 134.15 106.18 134.62 106.12 134.86 105.96 C 135.08 105.82 135.42 105.57 135.45 105.28 C 135.48 104.94 135.1 104.82 135.32 104.56 C 135.53 104.33 135.35 104.07 134.96 104.08 Z M 150.86 108.41 C 150.92 108.41 150.98 108.42 151.04 108.42 C 151.53 108.51 150.98 109.14 150.78 109.28 C 150.4 109.53 150.44 109.62 150.62 109.74 C 150.98 109.99 151.09 110.29 151.4 110.56 C 151.62 110.75 152.34 110.92 152.07 111.38 C 151.92 111.62 151.56 111.83 151.06 111.77 C 150.58 111.72 150.25 111.37 149.52 111.31 C 148.9 111.27 148.52 111.66 148.03 111.62 C 147.22 111.55 147.28 110.96 147.45 110.42 C 147.63 109.86 148 109.01 148.46 108.97 C 148.98 108.93 148.96 109.44 149.03 109.66 C 149.12 109.94 149.31 110.09 149.57 109.98 C 149.91 109.83 150.12 109.62 149.78 109.44 C 149.44 109.27 149.62 108.88 149.92 108.82 C 150.3 108.74 150.46 108.43 150.86 108.41 Z M 122.42 109.84 C 122.24 109.85 122.11 110.24 121.98 110.42 C 121.72 110.78 121.06 110.86 121.16 111.22 C 121.22 111.46 121.32 111.47 121.81 111.49 C 122.18 111.51 122.41 111.75 122.57 111.85 C 122.96 112.1 122.98 112.38 123.3 112.14 C 123.5 112 123.39 111.59 123.13 111.25 C 122.78 110.78 123.05 110.76 122.84 110.56 C 122.48 110.22 122.8 110.15 122.56 109.91 C 122.51 109.86 122.46 109.84 122.42 109.84 Z M 149.5 117.8 C 149.76 117.78 150.11 118.17 150.42 118.92 C 150.89 119.99 151.4 120.09 151.26 120.71 C 151.02 121.79 151.64 121.72 151.98 122.14 C 152.23 122.46 152.14 122.94 152.48 123.32 C 152.61 123.46 153.08 124.48 152.61 124.84 C 152.27 125.1 152.03 124.26 151.74 124.04 C 150.86 123.35 151.48 122.97 150.91 122.44 C 150.68 122.22 150.51 122.06 150.64 121.84 C 150.78 121.62 150.66 120.88 150.28 120.58 C 149.9 120.28 150.17 120.2 149.99 119.74 C 149.88 119.46 149.65 119.33 149.54 118.83 C 149.44 118.41 149.3 118.4 149.25 118.15 C 149.21 117.96 149.32 117.87 149.39 117.83 C 149.43 117.81 149.46 117.8 149.5 117.8 Z M 110.02 121.03 C 109.89 121.02 109.78 121.08 109.7 121.24 C 109.42 121.87 110.9 121.84 111.16 122.5 C 111.34 122.98 111.54 123.42 112.04 123.19 C 112.41 123.02 112.24 122.76 111.71 122.35 C 111.45 122.14 111.4 121.82 111.05 121.74 C 110.92 121.7 111.1 121.52 110.83 121.39 C 110.52 121.24 110.23 121.04 110.02 121.03 Z M 154.24 136.61 C 154.13 136.62 154.03 136.74 153.98 137 C 153.95 137.19 153.82 137.15 153.62 137.4 C 153.53 137.51 153.48 137.68 153.35 137.81 C 153.2 137.95 152.95 138.07 152.8 138.14 C 152.24 138.41 152.11 139.04 152.32 139.46 C 152.51 139.83 152.24 139.9 151.99 140.55 C 151.67 141.37 151.98 142.28 152.58 142.4 C 153.23 142.53 153.73 140.5 153.84 139.82 C 153.92 139.29 154.04 139.51 154.18 138.76 C 154.28 138.24 154.61 137.93 154.62 137.5 C 154.63 136.94 154.43 136.61 154.24 136.61 Z" fill="#ffffff" stroke="#36393d" stroke-miterlimit="10" pointer-events="all" style="fill: light-dark(rgb(255, 255, 255), rgb(18, 18, 18)); stroke: light-dark(rgb(54, 57, 61), rgb(186, 189, 192));"/></g></g><g data-cell-id="KelcQbCNuYDzjiUfYtOG-22"><g transform="translate(0.5,0.5)" style="filter: drop-shadow(light-dark(rgba(0, 0, 0, 0.25), rgba(237, 237, 237, 0.25)) 2px 3px 2px);"><rect x="105" y="158" width="60" height="20" fill="none" stroke="none" pointer-events="all"/></g><g style="filter: drop-shadow(light-dark(rgba(0, 0, 0, 0.25), rgba(237, 237, 237, 0.25)) 2px 3px 2px);"><g fill="#000000" font-family="Verdana" text-anchor="middle" font-size="15px" style="fill: light-dark(rgb(0, 0, 0), rgb(255, 255, 255));"><text x="135" y="174.5"><tspan><tspan font-weight="bold"><tspan>ToESS</tspan></tspan></tspan></text></g></g></g><g data-cell-id="KelcQbCNuYDzjiUfYtOG-26"><g transform="translate(0.5,0.5)"><rect x="205" y="63" width="30" height="41" fill="none" stroke="none" pointer-events="all"/><path d="M 228.45 99.82 C 231.81 97.05 233.94 93.15 233.94 88.79 C 233.94 83.43 230.72 78.59 225.71 75.87 L 231.33 67.38 L 230.44 66.93 L 231.83 64.83 L 228.2 63 L 226.81 65.1 L 225.88 64.63 L 212.09 85.53 L 213.3 86.14 L 211.59 88.73 L 214.61 90.25 L 216.33 87.67 L 217.53 88.27 L 223.33 79.48 C 226.89 81.46 229.17 84.94 229.17 88.79 C 229.17 94.88 223.51 99.82 216.55 99.82 C 211.9 99.82 206.39 99.82 206.39 99.82 L 206.39 104 L 235 104 L 235 99.82 C 235 99.82 230.76 99.82 228.45 99.82 Z" fill="#000000" stroke="none" pointer-events="all" style="fill: light-dark(rgb(0, 0, 0), rgb(237, 237, 237));"/><path d="M 206.12 88.96 L 205 90.67 L 216.66 96.58 L 217.77 94.87 Z" fill="#000000" stroke="none" pointer-events="all" style="fill: light-dark(rgb(0, 0, 0), rgb(237, 237, 237));"/></g></g><g data-cell-id="KelcQbCNuYDzjiUfYtOG-27"><g transform="translate(0.5,0.5)"><rect x="103" y="204" width="64" height="30" fill="none" stroke="none" transform="rotate(90,135,219)" pointer-events="all"/><path d="M 135.01 187 L 130.67 194.11 L 133.76 194.11 L 133.76 230.45 L 125.88 223.37 C 125.37 222.77 125.01 221.98 124.99 221.17 C 124.99 217.89 124.99 215.95 124.99 215.23 C 126.45 214.75 127.5 213.44 127.5 211.89 C 127.5 209.93 125.82 208.33 123.75 208.33 C 121.68 208.33 120 209.92 120 211.88 C 120 213.43 121.05 214.74 122.51 215.23 L 122.51 221.1 C 122.51 222.69 123.43 224.36 124.51 225.42 C 124.48 225.39 124.44 225.36 124.51 225.42 C 124.54 225.44 132.88 232.93 132.88 232.93 C 133.38 233.53 133.74 234.32 133.76 235.13 L 133.76 239.24 C 130.89 239.78 128.74 242.18 128.74 245.06 C 128.74 248.34 131.54 251 135 251 C 138.46 251 141.26 248.35 141.26 245.06 C 141.26 242.19 139.11 239.78 136.24 239.24 L 136.24 235.2 C 136.24 235.19 136.24 235.18 136.24 235.17 L 136.24 226.23 C 136.26 225.42 136.61 224.64 137.12 224.04 C 137.12 224.04 145.46 216.56 145.49 216.54 C 145.56 216.48 145.52 216.5 145.49 216.54 C 146.57 215.47 147.49 213.8 147.49 212.21 L 147.49 206.56 L 150 206.56 L 150 199.44 L 142.5 199.44 L 142.5 206.56 L 145.01 206.56 C 145.01 206.56 145 208.05 145 212.28 C 144.98 213.09 144.63 213.88 144.12 214.48 L 136.24 221.56 L 136.24 194.11 L 139.34 194.11 L 135.01 187 Z" fill="#000000" stroke="none" transform="rotate(90,135,219)" pointer-events="all" style="fill: light-dark(rgb(0, 0, 0), rgb(237, 237, 237));"/></g></g><g data-cell-id="KelcQbCNuYDzjiUfYtOG-28"><g transform="translate(0.5,0.5)"><rect x="206.5" y="160" width="30" height="30" fill="none" stroke="none" pointer-events="all"/><path d="M 226.39 189.96 L 220.56 189.96 C 220.56 182.21 214.26 175.92 206.5 175.92 L 206.5 175.92 L 206.5 170.1 C 217.48 170.1 226.39 178.99 226.39 189.96 Z M 230.5 189.96 C 230.5 176.72 219.76 165.99 206.5 165.99 L 206.5 160 C 223.07 160 236.5 173.42 236.5 189.96 L 230.5 189.96 Z M 206.5 185.91 C 206.5 184.45 207.28 183.1 208.56 182.37 C 209.83 181.64 211.39 181.64 212.67 182.37 C 213.94 183.1 214.72 184.45 214.72 185.91 C 214.72 187.37 213.94 188.72 212.67 189.45 C 211.39 190.18 209.83 190.18 208.56 189.45 C 207.28 188.72 206.5 187.37 206.5 185.91 Z" fill="#000000" stroke="none" pointer-events="all" style="fill: light-dark(rgb(0, 0, 0), rgb(237, 237, 237));"/></g></g><g data-cell-id="KelcQbCNuYDzjiUfYtOG-29"><g transform="translate(0.5,0.5)"><rect x="31" y="63.5" width="40" height="40" fill="none" stroke="none" pointer-events="all"/><path d="M 52.94 63.5 C 44.75 63.5 37.2 68.67 35.63 74.37 C 35.27 75.64 34.88 78.94 34.88 78.94 L 31.1 86.92 C 31.03 87.07 31 87.23 31 87.4 C 31 88.08 31.66 88.63 32.46 88.63 L 34.88 88.63 L 34.88 92.87 C 34.88 96.18 38.07 98.85 42 98.85 L 44.83 98.85 L 44.83 103.5 L 64.1 103.5 L 64.1 90.62 C 68.3 87.84 71 83.53 71 78.68 C 70.99 70.3 62.91 63.5 52.94 63.5 Z M 39.31 81.97 C 38.21 81.97 37.31 81.21 37.31 80.27 C 37.31 79.34 38.21 78.58 39.31 78.58 C 40.43 78.58 41.34 79.34 41.34 80.27 C 41.34 81.21 40.43 81.97 39.31 81.97 Z M 65.96 79.67 L 64.08 81.25 L 61.79 79.89 C 61.35 80.09 60.89 80.24 60.4 80.34 L 59.98 82.44 L 60.85 82.44 L 61.09 83.55 C 61.18 83.57 61.27 83.59 61.36 83.62 C 61.6 83.69 61.82 83.78 62.02 83.89 L 63.08 83.27 L 63.94 84 L 63.17 84.92 C 63.33 85.17 63.47 85.44 63.54 85.72 L 64.81 85.9 L 64.81 86.93 L 63.49 87.12 C 63.46 87.2 63.45 87.28 63.41 87.35 C 63.33 87.55 63.22 87.74 63.08 87.91 L 63.83 88.79 L 62.96 89.52 L 61.86 88.87 C 61.56 89.01 61.25 89.12 60.92 89.18 L 60.69 90.25 L 59.47 90.25 L 59.25 89.13 C 59.16 89.11 59.06 89.1 58.97 89.07 C 58.73 89 58.51 88.91 58.31 88.8 L 57.25 89.43 L 56.39 88.7 L 57.17 87.77 C 57.01 87.52 56.87 87.26 56.8 86.97 L 55.52 86.79 L 55.52 85.76 L 56.86 85.57 C 56.89 85.49 56.9 85.41 56.93 85.34 C 57.02 85.14 57.13 84.96 57.26 84.79 L 56.51 83.9 L 57.38 83.17 L 58.48 83.83 C 58.78 83.69 59.09 83.57 59.42 83.51 L 59.61 82.58 L 57.31 82.58 L 56.82 80.26 C 56.72 80.23 56.62 80.21 56.52 80.18 C 56.14 80.06 55.8 79.92 55.47 79.76 L 53.26 81.06 L 51.38 79.48 L 52.99 77.56 C 52.76 77.19 52.58 76.8 52.46 76.39 L 49.8 76.01 L 49.8 74.17 L 48.46 74.37 C 48.44 74.42 48.44 74.48 48.41 74.53 C 48.33 74.73 48.21 74.91 48.09 75.09 L 49.12 76.31 L 47.88 77.35 L 46.37 76.46 C 46.09 76.58 45.8 76.68 45.5 76.75 L 45.19 78.21 L 43.46 78.21 L 43.14 76.68 C 43.08 76.67 43.02 76.66 42.96 76.64 C 42.72 76.57 42.5 76.47 42.29 76.37 L 40.83 77.23 L 39.6 76.19 L 40.66 74.92 C 40.52 74.69 40.41 74.44 40.33 74.19 L 38.58 73.94 L 38.58 72.48 L 40.38 72.22 C 40.4 72.16 40.42 72.11 40.44 72.06 C 40.53 71.86 40.65 71.67 40.76 71.5 L 39.74 70.27 L 40.96 69.24 L 42.48 70.13 C 42.76 70.01 43.05 69.91 43.35 69.84 L 43.66 68.37 L 45.39 68.37 L 45.7 69.9 C 45.77 69.92 45.83 69.92 45.89 69.94 C 46.13 70.01 46.35 70.11 46.56 70.22 L 48.02 69.35 L 49.25 70.39 L 48.18 71.66 C 48.33 71.89 48.44 72.14 48.52 72.39 L 50.26 72.64 L 50.26 73.71 L 52.55 73.38 C 52.58 73.29 52.6 73.21 52.65 73.12 C 52.78 72.8 52.96 72.51 53.15 72.23 L 51.58 70.38 L 53.46 68.8 L 55.75 70.16 C 56.2 69.96 56.66 69.81 57.15 69.71 L 57.6 67.47 L 60.26 67.47 L 60.74 69.79 C 60.84 69.81 60.95 69.84 61.05 69.87 C 61.42 69.99 61.76 70.13 62.09 70.29 L 64.3 68.98 L 66.17 70.56 L 64.56 72.49 C 64.79 72.86 64.97 73.25 65.1 73.65 L 67.76 74.04 L 67.76 76.27 L 65 76.67 C 64.97 76.76 64.94 76.85 64.9 76.93 C 64.77 77.24 64.6 77.54 64.4 77.81 L 65.96 79.67 Z" fill="#000000" stroke="none" pointer-events="all" style="fill: light-dark(rgb(0, 0, 0), rgb(237, 237, 237));"/><path d="M 58.7 73.29 C 57.66 73.29 56.81 74 56.81 74.89 C 56.81 75.78 57.66 76.49 58.7 76.49 C 59.76 76.49 60.6 75.78 60.6 74.89 C 60.6 74.01 59.76 73.29 58.7 73.29 Z" fill="#000000" stroke="none" pointer-events="all" style="fill: light-dark(rgb(0, 0, 0), rgb(237, 237, 237));"/><path d="M 58.26 86.42 C 58.26 87.31 59.11 88.02 60.16 88.02 C 61.21 88.02 62.06 87.3 62.06 86.42 C 62.06 85.53 61.21 84.82 60.16 84.82 C 59.11 84.82 58.26 85.53 58.26 86.42 Z" fill="#000000" stroke="none" pointer-events="all" style="fill: light-dark(rgb(0, 0, 0), rgb(237, 237, 237));"/><path d="M 44.34 71.56 C 43.29 71.56 42.43 72.27 42.43 73.16 C 42.43 74.04 43.29 74.76 44.34 74.76 C 45.4 74.76 46.25 74.04 46.25 73.16 C 46.25 72.27 45.4 71.56 44.34 71.56 Z" fill="#000000" stroke="none" pointer-events="all" style="fill: light-dark(rgb(0, 0, 0), rgb(237, 237, 237));"/></g></g><g data-cell-id="KelcQbCNuYDzjiUfYtOG-30"><g transform="translate(0.5,0.5)"><path d="M 53.35 155.25 L 53.35 171.74 L 68.55 171.74 C 69.07 165.44 68.53 159.64 68.53 159.64 C 68.53 159.64 64.92 162.04 59.37 159.02 C 57.29 157.89 55.26 156.64 53.35 155.25 Z M 49.5 155.27 C 47.59 156.67 45.58 157.92 43.5 159.02 C 37.91 162.02 34.29 159.61 34.29 159.61 C 34.29 159.61 33.75 165.42 34.27 171.72 L 49.5 171.72 Z M 34.74 175.59 C 35.21 178.4 35.95 181.11 37.13 183.21 C 40.88 189.91 46.55 192.95 49.5 194.16 L 49.5 175.59 Z M 53.39 175.66 L 53.39 194.25 C 54.72 193.71 55.97 193.05 57.17 192.29 L 57.15 184.46 C 57.15 183.52 57.93 182.74 58.87 182.74 L 58.92 182.74 L 58.92 181.91 C 58.92 178.91 61.35 176.46 64.37 176.46 C 65.6 176.46 66.78 176.86 67.75 177.62 C 67.89 176.98 68.01 176.32 68.13 175.66 Z M 64.44 178.25 C 62.34 178.25 60.62 179.95 60.62 182.08 C 60.62 182.31 60.64 182.55 60.69 182.76 L 62.25 182.76 L 62.25 182 C 62.25 180.83 63.22 179.86 64.42 179.86 C 65.6 179.86 66.59 180.83 66.59 182 L 66.59 182.76 L 68.17 182.76 C 68.22 182.52 68.24 182.29 68.24 182.08 C 68.24 179.98 66.55 178.25 64.44 178.25 Z M 59.77 184.01 C 59.06 184.01 58.49 184.58 58.49 185.28 L 58.49 192.69 C 58.49 193.4 59.06 193.97 59.77 193.97 L 69.07 193.97 C 69.78 193.97 70.35 193.4 70.35 192.69 L 70.35 185.28 C 70.37 184.58 69.78 184.01 69.07 184.01 Z M 64.4 186.23 C 65.27 186.23 65.98 186.94 65.98 187.81 C 66.03 188.38 65.7 188.89 65.22 189.18 L 65.22 191.04 C 65.22 191.44 64.89 191.77 64.49 191.77 L 64.35 191.77 C 63.95 191.77 63.62 191.44 63.62 191.04 L 63.62 189.18 C 63.12 188.89 62.81 188.38 62.81 187.81 C 62.81 187.39 62.98 186.99 63.28 186.69 C 63.57 186.39 63.98 186.23 64.4 186.23 Z" fill="#000000" stroke="none" pointer-events="all" style="fill: light-dark(rgb(0, 0, 0), rgb(237, 237, 237));"/></g></g><g data-cell-id="KelcQbCNuYDzjiUfYtOG-35"><g transform="translate(0.5,0.5)"><path d="M 134.25 41.09 C 133.9 41.33 133.77 41.2 133.77 40.89 L 133.77 35.2 C 133.77 35.02 133.86 34.95 134.06 34.95 L 136.99 34.95 C 137.09 34.95 137.16 35 137.16 35.12 L 137.16 37.83 C 136.56 39.14 135.41 40.33 134.25 41.09 Z M 124.85 41.08 C 124.85 41.34 124.64 41.39 124.37 41.2 C 123.31 40.45 122.15 39.3 121.43 38.06 L 121.43 33.12 C 121.43 32.92 121.56 32.84 121.77 32.84 L 124.52 32.85 C 124.77 32.85 124.85 32.94 124.85 33.15 Z M 127.46 42.27 L 127.46 28.81 C 127.46 28.69 127.57 28.59 127.74 28.59 L 130.58 28.59 C 130.78 28.59 130.88 28.69 130.88 28.87 L 130.88 42.24 C 130.88 42.42 130.75 42.5 130.48 42.56 C 130.05 42.66 128.42 42.68 127.77 42.53 C 127.64 42.51 127.46 42.4 127.46 42.27 Z M 129.02 44.01 C 135.33 44.01 140.04 38.9 140.04 33.1 C 140.04 27.28 135.34 22.1 129.17 22.1 C 123.17 22.1 118.22 27.08 118.22 33.11 C 118.22 38.86 122.99 44.01 129.02 44.01 Z M 137.92 43.99 C 135.5 45.95 132.23 47.13 129.21 47.13 C 121.07 47.13 115.2 40.38 115.2 33.17 C 115.2 24.88 121.81 19 129.14 19 C 136.4 19 143.08 24.8 143.08 33.14 C 143.08 36.45 141.96 39.4 140 41.91 L 140.38 42.36 L 143.44 42.91 L 154.2 53.76 C 154.8 54.41 154.5 56.04 153.21 57.27 C 151.95 58.47 150.5 59 149.68 58.29 L 138.93 47.48 L 138.4 44.45 Z" fill="#000000" stroke="none" pointer-events="all" style="fill: light-dark(rgb(0, 0, 0), rgb(237, 237, 237));"/></g></g></g></g></g></svg>